<?xml version="1.0" standalone="no"?><!DOCTYPE svg PUBLIC "-//W3C//DTD SVG 1.1//EN" "http://www.w3.org/Graphics/SVG/1.1/DTD/svg11.dtd"><svg t="1717954328009" class="icon" viewBox="0 0 1024 1024" version="1.1" xmlns="http://www.w3.org/2000/svg" p-id="7868" xmlns:xlink="http://www.w3.org/1999/xlink" width="64" height="64"><path d="M642.56 963.2c-11.52 0-21.12-9.6-21.12-21.12V900.8l-5.76 0.96c-27.84 3.84-54.72 5.76-79.68 5.76-14.4 0-28.8-0.96-41.28-1.92h-1.92l-33.6 42.24c-3.84 4.8-10.56 7.68-16.32 7.68H299.84c-11.52 0-21.12-9.6-21.12-21.12V830.72l-3.84-1.92c-97.92-40.32-144.96-139.2-157.44-168l-0.96-1.92-57.6-24.96c-7.68-2.88-12.48-11.52-12.48-19.2V468.8c0-11.52 9.6-21.12 21.12-21.12h50.88l0.96-2.88c21.12-49.92 59.52-88.32 80.64-107.52l2.88-2.88-2.88-3.84c-46.08-63.36-31.68-108.48-29.76-114.24 1.92-5.76 6.72-10.56 12.48-12.48 23.04-8.64 48.96-12.48 77.76-12.48 68.16 0 132.48 24.96 149.76 32.64h1.92c6.72-0.96 13.44-0.96 20.16-1.92h1.92c11.52 0 20.16 8.64 21.12 20.16 0 5.76-0.96 11.52-4.8 15.36s-8.64 6.72-14.4 7.68c-8.64 0.96-17.28 0.96-25.92 1.92h-1.92c-2.88 0-5.76-0.96-8.64-1.92-0.96 0-68.16-30.72-138.24-30.72-17.28 0-32.64 1.92-48 5.76l-3.84 0.96v3.84c0.96 16.32 7.68 44.16 39.36 77.76 3.84 4.8 5.76 10.56 5.76 16.32-0.96 5.76-3.84 11.52-8.64 15.36-0.96 0.96-70.08 51.84-92.16 120.96-2.88 8.64-10.56 14.4-20.16 14.4H88.64v110.4l52.8 23.04c5.76 1.92 9.6 6.72 11.52 12.48 0 0.96 11.52 32.64 36.48 67.2 32.64 46.08 71.04 76.8 116.16 91.2 8.64 2.88 14.4 10.56 14.4 20.16v97.92h111.36l34.56-43.2c3.84-4.8 10.56-7.68 16.32-7.68h3.84c0.96 0 18.24 2.88 49.92 2.88 32.64 0 67.2-2.88 102.72-9.6h3.84c4.8 0 9.6 1.92 13.44 4.8 4.8 3.84 7.68 9.6 7.68 16.32V920h109.44l0.96-1.92c24.96-38.4 109.44-168 135.36-222.72 6.72-14.4 18.24-51.84 22.08-97.92 3.84-39.36 2.88-98.88-21.12-154.56-29.76-70.08-87.36-120.96-171.84-150.72-11.52-3.84-17.28-16.32-13.44-26.88 2.88-8.64 11.52-14.4 20.16-14.4 1.92 0 4.8 0 6.72 0.96 50.88 18.24 94.08 43.2 127.68 74.88 29.76 27.84 53.76 61.44 69.12 99.84 26.88 64.32 27.84 130.56 24 175.68-4.8 48-16.32 91.2-26.88 112.32-28.8 66.24-138.24 232.32-142.08 240-3.84 5.76-10.56 9.6-18.24 9.6H642.56z" fill="#00386B" p-id="7869"></path><path d="M299.84 534.08c-25.92 0-48-21.12-48-48s21.12-48 48-48 48 21.12 48 48-22.08 48-48 48z m-5.76-48v4.8h9.6v-9.6h-9.6v4.8zM704 370.88c-2.88 0-5.76-0.96-8.64-1.92-46.08-20.16-95.04-29.76-144.96-29.76-42.24 0-69.12 7.68-69.12 7.68-1.92 0.96-3.84 0.96-5.76 0.96-9.6 0-18.24-6.72-20.16-15.36-1.92-5.76-0.96-11.52 1.92-16.32 2.88-4.8 7.68-8.64 12.48-10.56 0.96 0 12.48-3.84 31.68-5.76l9.6-0.96-6.72-7.68c-25.92-25.92-40.32-59.52-40.32-96 0-74.88 60.48-135.36 134.4-135.36s133.44 60.48 133.44 135.36c0 45.12-22.08 86.4-58.56 112.32l-7.68 5.76 9.6 2.88c12.48 3.84 25.92 8.64 38.4 14.4 10.56 4.8 15.36 17.28 11.52 27.84-4.8 7.68-12.48 12.48-21.12 12.48z m-105.6-268.8c-49.92 0-91.2 41.28-91.2 93.12s41.28 93.12 91.2 93.12 91.2-41.28 91.2-93.12-41.28-93.12-91.2-93.12z" fill="#00386B" p-id="7870"></path></svg>