<?xml version="1.0" standalone="no"?><!DOCTYPE svg PUBLIC "-//W3C//DTD SVG 1.1//EN" "http://www.w3.org/Graphics/SVG/1.1/DTD/svg11.dtd"><svg t="1710608261443" class="icon" viewBox="0 0 1024 1024" version="1.1" xmlns="http://www.w3.org/2000/svg" p-id="17794" xmlns:xlink="http://www.w3.org/1999/xlink" width="64" height="64"><path d="M291.44 513.584c0.88 141.152 116.768 254.88 258.864 253.952 142.096-0.864 256.528-115.968 255.664-257.136-0.88-141.12-116.784-254.848-258.88-253.984C405.008 257.328 290.544 372.448 291.44 513.584L291.44 513.584 291.44 513.584 291.44 513.584zM459.488 512.56c-0.32-48.96 39.376-88.88 88.656-89.184 49.28-0.32 89.456 39.12 89.76 88.08 0.32 48.944-39.376 88.864-88.656 89.184C499.952 600.912 459.792 561.504 459.488 512.56L459.488 512.56 459.488 512.56 459.488 512.56zM340.96 513.264c-0.112-20.464 16.48-37.168 37.088-37.28 20.592-0.128 37.408 16.368 37.536 36.832 0.144 20.464-16.464 37.152-37.072 37.28C357.904 550.24 341.104 533.744 340.96 513.264L340.96 513.264 340.96 513.264 340.96 513.264zM494.192 711.104c-19.872-5.36-31.648-25.728-26.208-45.504 5.392-19.744 25.888-31.376 45.792-26.016 19.888 5.36 31.648 25.712 26.208 45.504C534.592 704.848 514.08 716.496 494.192 711.104L494.192 711.104 494.192 711.104 494.192 711.104zM710.16 641.84c-12.96 15.904-36.448 18.352-52.464 5.488-16.016-12.896-18.496-36.24-5.552-52.144 12.992-15.888 36.464-18.352 52.496-5.472C720.672 602.592 723.12 625.904 710.16 641.84L710.16 641.84 710.16 641.84 710.16 641.84zM708.656 380.336c13.136 15.744 10.96 39.136-4.928 52.208-15.872 13.056-39.392 10.864-52.544-4.912-13.136-15.776-10.96-39.136 4.96-52.16C671.984 362.384 695.504 364.56 708.656 380.336L708.656 380.336 708.656 380.336 708.656 380.336zM492 313.472c19.808-5.6 40.448 5.84 46.064 25.552 5.632 19.68-5.872 40.176-25.696 45.76-19.808 5.584-40.448-5.84-46.064-25.552C460.64 339.568 472.16 319.056 492 313.472L492 313.472 492 313.472 492 313.472zM230.768 77.872l18.496-13.328 139.6 190.592-18.56 13.376c-116.624 84.08-157.424 239.152-97.088 369.2l9.6 20.656L67.2 756.784l-9.584-20.656C-49.952 504.272 22.752 227.824 230.768 77.872L230.768 77.872 230.768 77.872 230.768 77.872zM161.536 771.44l55.12-25.168c74.336 103.76 196.656 171.152 334.592 170.288 224.928-1.424 406.112-183.664 404.704-407.104C954.512 286.032 771.04 106.048 546.144 107.44c-61.472 0.384-119.648 14.288-171.744 38.816L338.768 97.6C557.12-11.84 826.352 64.976 951.664 277.504c130.352 221.104 55.632 505.312-166.928 634.832C570.768 1036.8 298.112 972.976 161.536 771.44L161.536 771.44 161.536 771.44zM161.536 771.44" p-id="17795" fill="#FF9E30"></path></svg>