<?xml version="1.0" standalone="no"?><!DOCTYPE svg PUBLIC "-//W3C//DTD SVG 1.1//EN" "http://www.w3.org/Graphics/SVG/1.1/DTD/svg11.dtd"><svg t="1717842975864" class="icon" viewBox="0 0 1024 1024" version="1.1" xmlns="http://www.w3.org/2000/svg" p-id="12268" xmlns:xlink="http://www.w3.org/1999/xlink" width="64" height="64"><path d="M854.63936 42.18368a93.76384 93.76384 0 0 0-65.8624-26.8352H235.19744a94.89664 94.89664 0 0 0-66.13248 26.8352c-17.05728 16.32-27.19744 39.72992-27.19744 65.49632v808.57216c0 50.80448 42.13632 92.38016 93.32992 92.38016h553.57952c51.2 0 93.32864-41.57568 93.32864-92.38016V107.68384a91.42656 91.42656 0 0 0-27.46624-65.50016z m-47.72352 874.06848c0 5.02784-1.6 10.00576-5.04576 12.92032h-0.27008a17.664 17.664 0 0 1-12.82304 5.248H235.19744a17.60256 17.60256 0 0 1-12.8-5.248l-1.05728-1.0688a17.80992 17.80992 0 0 1-4.28288-11.85152V107.68384a18.56 18.56 0 0 1 5.34016-13.13792 20.04864 20.04864 0 0 1 12.8-5.248h553.57952a20.11264 20.11264 0 0 1 12.82304 5.248c3.712 3.424 5.31584 7.62496 5.31584 13.13792v808.56832z m-52.27648-767.232H269.33504a22.66496 22.66496 0 0 0-22.66752 22.36672v151.55968a22.84416 22.84416 0 0 0 22.66752 22.36672h485.30432a22.8608 22.8608 0 0 0 22.66752-22.36672V171.38432a22.6816 22.6816 0 0 0-22.66752-22.36672z m-22.66752 151.55968H291.73248v-106.83008h440.23936v106.83008z m22.66752 273.64352h-93.84704c-12.8 0-22.9376 9.984-22.9376 22.0992v270.464a22.60992 22.60992 0 0 0 22.9376 22.62912h93.84704a22.72 22.72 0 0 0 22.66752-22.63424v-270.464c0-12.11904-10.41024-22.0992-22.66752-22.0992z m-22.66752 270.75328h-48.78208V618.66496h48.78208v226.31168zM363.1808 574.22336h-93.84576c-12.2816 0-22.66752 9.984-22.66752 22.0992v93.1328c0 12.09344 10.38592 22.0992 22.66752 22.0992h93.84576a22.28352 22.28352 0 0 0 22.6688-22.0992v-93.1328a22.272 22.272 0 0 0-22.6688-22.0992z m-22.4 93.1328h-49.04832v-48.6912h49.05216v48.6912z m22.4 84.9728h-93.84576a22.49216 22.49216 0 0 0-22.66752 22.36672v92.08832a22.70464 22.70464 0 0 0 22.66752 22.63168h93.84576a22.3808 22.3808 0 0 0 22.6688-22.63424v-92.08576a22.17344 22.17344 0 0 0-22.6688-22.36672z m-22.4 92.64768h-49.04832v-48.42496h49.05216v48.42496zM559.1936 396.09216h-94.4128a22.09152 22.09152 0 0 0-22.12608 21.83296v93.40032a22.37696 22.37696 0 0 0 22.12608 22.36544h94.4128a22.6816 22.6816 0 0 0 22.66752-22.36544v-93.40032c0-12.09472-10.41152-21.83296-22.66752-21.83296z m-22.66752 93.376h-49.07776v-48.91008h49.07776v48.91008z m218.112-93.376h-93.84576c-12.8 0-22.9376 9.73824-22.9376 22.36672v92.86656a22.56896 22.56896 0 0 0 22.9376 22.36544h93.84704a22.6816 22.6816 0 0 0 22.66752-22.36544v-92.86656a22.50752 22.50752 0 0 0-22.66752-22.36672z m-22.66752 93.376h-48.7808v-48.91008h48.78208v48.91008zM559.1936 573.95584h-94.4128a22.53696 22.53696 0 0 0-22.12608 22.36672v93.1328a22.32192 22.32192 0 0 0 22.12608 22.0992h94.4128c12.256 0 22.66752-10.00576 22.66752-22.0992v-93.1328a22.84416 22.84416 0 0 0-22.66752-22.36672z m-22.66752 93.40032h-49.07776v-48.6912h49.07776v48.6912z m22.66752 84.97152h-94.4128a22.20544 22.20544 0 0 0-22.12608 22.36672v92.08832a22.42176 22.42176 0 0 0 22.12608 22.63296h94.4128a22.72128 22.72128 0 0 0 22.66752-22.63424v-92.08576a22.5088 22.5088 0 0 0-22.66752-22.368z m-22.66752 92.64768h-49.07776v-48.42368h49.07776v48.42496z m-173.34528-448.8832h-93.84576a22.49216 22.49216 0 0 0-22.66752 22.36672v92.86656a22.66496 22.66496 0 0 0 22.66752 22.36544h93.84576a22.33728 22.33728 0 0 0 22.6688-22.36544v-92.86656a22.17344 22.17344 0 0 0-22.6688-22.36672z m-22.4 93.376h-49.04832v-48.91008h49.05216v48.91008z" fill="#ffffff" p-id="12269"></path></svg>