<?xml version="1.0" standalone="no"?><!DOCTYPE svg PUBLIC "-//W3C//DTD SVG 1.1//EN" "http://www.w3.org/Graphics/SVG/1.1/DTD/svg11.dtd"><svg t="1716823019964" class="icon" viewBox="0 0 1024 1024" version="1.1" xmlns="http://www.w3.org/2000/svg" p-id="8500" xmlns:xlink="http://www.w3.org/1999/xlink" width="64" height="64"><path d="M840.1 593.9c0.2 17.9-2.7 35.8-8.4 52.8L935 770c0.9 0.8 1.7 1.7 2.6 2.6 27.3 28.8 26.1 74.1-2.6 101.4-28.8 27.3-74.1 26.1-101.4-2.6l-99.4-123.1s-31.3 10.9-74.8 7c-43.5-3.9-76.8-30.6-76.8-30.6-62-46-82.8-129.5-49.5-199.2l56.9 56.9c20.8 20.2 53.9 20.2 74.7 0 21.4-20.6 21.9-54.7 1.3-76.1l-57-56.9c7.8-3.7 15.9-6.8 24.1-9.2 85.6-25.1 175.3 23.9 200.4 109.4 0 0-5.3-22.7 0 0 5.4 22.8 4.6 24.9 6.6 44.3 2 19.5 0 0 0 0zM701.4 487.2c54.7 49.5 26.1 109.5 5.6 130.1-10.6 10.6-72.8 56.9-134.7 4.4 0 0 4.4 17.8 11.2 29.9 22 37.1 75.8 66.9 143.7 48.4l20.8-7 119.7 139.7 0.9 0.9c10.6 10.6 23.4 8.7 30.9 1.3 6.3-6.3 6.9-21-3-30.9L776.7 664.3l8.4-21.4c12-29 12.9-93.1-24.9-127.2 0 0-25.3-27.8-58.8-28.5zM225.6 595.5c-11.5 11.7-18.1 28.3-18.1 44.8s6.6 33.1 18.1 44.8c11.5 11.8 27.5 18.6 43.7 18.6s32.3-6.9 43.7-18.6c11.5-11.7 18.1-28.2 18.1-44.8 0-16.5-6.6-33.1-18.1-44.8-11.5-11.8-27.5-18.6-43.7-18.6s-32.3 6.9-43.7 18.6zM485.8 418.8H337.5l26.3-105.2h299.3l16.7 70.2h61.3l-20-89.3c-4.1-23.2-26.6-42.7-49.7-42.7H354.7c-23.2 0-45.6 19.4-49.8 42.7L271.8 442c-0.1 0.6-0.3 1.3-0.4 2-1.5 10.1 0.8 19.6 6.3 26 5.6 7 14.4 10.9 24.5 10.9h183.6v-62.1z" fill="#ffffff" p-id="8501"></path><path d="M534.8 764.9h-227c-13.9 0-25.4 10.8-26.6 24.9-2 22.4-19.6 39.2-41.3 39.2-22.1 0-40.3-18-41.4-40.8-0.6-12.3-9-22.6-20.6-25.4-30.6-7.3-50.3-35.2-47.9-67.8l9-122.6c2.3-31.9 25.7-60.8 57-70.3 10.3-3.1 17.7-12.2 18.9-23 0.2-1.6 0.3-3.2 0.4-4.7 0-0.9 0-1.6 0.2-2.4l40.7-196c9.4-45.2 55.4-83.4 100.5-83.4h312.6c45 0 91.1 38.2 100.5 83.4l22.4 107.8h63.3l-26-125.4c-14.8-71.7-85-130-156.5-130H352.7c-71.5 0-141.7 58.3-156.6 130l-40.6 196c-45.3 20.6-76.9 65-80.5 115.2l-9.3 125.7c-3.9 54 26 102.7 73.1 122.4 10.8 43.4 49 75.1 94.2 75.1 42 0 77.8-26.9 91.4-65.7h210.4v-62.2z" fill="#ffffff" p-id="8502"></path></svg>