<?xml version="1.0" standalone="no"?><!DOCTYPE svg PUBLIC "-//W3C//DTD SVG 1.1//EN" "http://www.w3.org/Graphics/SVG/1.1/DTD/svg11.dtd"><svg t="1710608199743" class="icon" viewBox="0 0 1024 1024" version="1.1" xmlns="http://www.w3.org/2000/svg" p-id="16705" xmlns:xlink="http://www.w3.org/1999/xlink" width="64" height="64"><path d="M692.053333 512c29.013333 0 52.053333-23.04 52.053334-52.053333 0-28.586667-23.04-52.053333-52.053334-52.053334-29.013333 0-52.053333 23.466667-52.053333 52.053334 0 29.013333 23.466667 52.053333 52.053333 52.053333z m-412.16-52.053333c0 28.586667 23.04 52.053333 52.053334 52.053333 29.013333 0 52.053333-23.04 52.053333-52.053333 0-28.586667-23.04-52.053333-52.053333-52.053334-29.013333 0-52.053333 23.466667-52.053334 52.053334zM324.693333 170.666667L267.946667 341.333333h487.68l-56.746667-170.666666H324.693333z m369.92-42.666667s23.04 0.426667 39.253334 23.04c0.853333 0.853333 1.28 1.706667 2.133333 2.986667 2.986667 4.693333 5.973333 10.24 8.106667 17.066666 9.386667 27.733333 66.56 199.68 66.56 199.68v277.333334c0 19.2-14.933333 34.56-33.28 34.56h-18.773334c-18.346667 0-33.28-15.36-33.28-34.56V597.333333H298.666667v50.773334c0 19.2-14.933333 34.56-33.28 34.56h-18.773334c-18.346667 0-33.28-15.36-33.28-34.56v-277.333334S270.506667 199.253333 279.466667 170.666667c2.133333-6.826667 5.12-11.946667 8.106666-17.066667 1.28-0.853333 1.706667-1.706667 2.56-2.56 16.213333-22.613333 39.253333-23.04 39.253334-23.04h365.226666zM170.666667 725.76h682.666666V810.666667h-298.666666v128h-85.333334v-128H170.666667v-84.906667z" p-id="16706" fill="#FF9E30"></path></svg>