<?xml version="1.0" standalone="no"?><!DOCTYPE svg PUBLIC "-//W3C//DTD SVG 1.1//EN" "http://www.w3.org/Graphics/SVG/1.1/DTD/svg11.dtd"><svg t="1717053096779" class="icon" viewBox="0 0 1024 1024" version="1.1" xmlns="http://www.w3.org/2000/svg" p-id="3577" xmlns:xlink="http://www.w3.org/1999/xlink" width="64" height="64"><path d="M267.242667 42.666667A32 32 0 0 0 234.666667 74.666667v99.925333c-60.906667 14.570667-106.666667 69.546667-106.666667 134.741333v448c0 76.202667 62.464 138.666667 138.666667 138.666667h490.666666c76.202667 0 138.666667-62.464 138.666667-138.666667v-448c0-65.173333-45.76-120.170667-106.666667-134.741333V74.666667a32 32 0 0 0-45.013333-29.248l-79.893333 35.541333-49.344-32.917333a32 32 0 0 0-32.042667-2.005334L512 81.536l-71.04-35.498667a32 32 0 0 0-32.042667 2.005334l-49.344 32.917333-79.914666-35.541333A32 32 0 0 0 267.242667 42.666667z m161.706666 68.906666l68.757334 34.389334a32 32 0 0 0 28.586666 0l68.757334-34.389334 48.533333 32.384a32 32 0 0 0 30.741333 2.624L725.333333 123.946667v73.493333a32 32 0 0 0 0 10.368V320H298.666667V207.914667a32 32 0 0 0 0-10.368V123.925333l50.986666 22.656a32 32 0 0 0 30.762667-2.624l48.533333-32.384zM234.666667 242.005333V352a32 32 0 0 0 32 32h490.666666a32 32 0 0 0 32-32v-109.994667c25.28 11.882667 42.666667 37.269333 42.666667 67.328V682.666667H192V309.333333c0-30.058667 17.386667-55.445333 42.666667-67.328zM362.666667 426.666667a42.666667 42.666667 0 0 0 0 85.333333 42.666667 42.666667 0 0 0 0-85.333333z m149.333333 0a42.666667 42.666667 0 0 0 0 85.333333 42.666667 42.666667 0 0 0 0-85.333333z m149.333333 0a42.666667 42.666667 0 0 0 0 85.333333 42.666667 42.666667 0 0 0 0-85.333333z m-298.666666 128a42.666667 42.666667 0 0 0 0 85.333333 42.666667 42.666667 0 0 0 0-85.333333z m149.333333 0a42.666667 42.666667 0 0 0 0 85.333333 42.666667 42.666667 0 0 0 0-85.333333z m149.333333 0a42.666667 42.666667 0 0 0 0 85.333333 42.666667 42.666667 0 0 0 0-85.333333zM192 746.666667h640v10.666666c0 41.6-33.066667 74.666667-74.666667 74.666667h-202.709333A42.666667 42.666667 0 0 0 512 789.333333a42.666667 42.666667 0 0 0-42.624 42.666667H266.666667C225.066667 832 192 798.933333 192 757.333333V746.666667z" p-id="3578" fill="#ffffff"></path></svg>