<?xml version="1.0" standalone="no"?><!DOCTYPE svg PUBLIC "-//W3C//DTD SVG 1.1//EN" "http://www.w3.org/Graphics/SVG/1.1/DTD/svg11.dtd"><svg t="1717000270739" class="icon" viewBox="0 0 1024 1024" version="1.1" xmlns="http://www.w3.org/2000/svg" p-id="9974" xmlns:xlink="http://www.w3.org/1999/xlink" width="64" height="64"><path d="M793.216 619.392a20.8 20.8 0 0 0-4.128-3.264 127.68 127.68 0 0 0-68.032-19.648c-32.736 0-65.44 12.48-90.4 37.44L608 656.544v-304.48c0-35.2-28.8-64-64-64s-64 28.8-64 64v140.8a63.36 63.36 0 0 0-49.216-23.68 63.36 63.36 0 0 0-37.088 12.064l-137.824 79.776A63.824 63.824 0 0 0 224 616.192v105.248c0 114.432 92.736 207.168 207.168 207.168 55.424 0 105.632-21.888 142.784-57.344l0.032 0.288 3.552-3.552 0.16-0.16 215.488-215.52c9.12-9.12 9.12-23.808 0.032-32.928zM551.872 848.064a174.304 174.304 0 0 1-120.704 48.48C334.592 896.608 256 817.984 256 721.408V616.16c0-11.264 5.984-21.472 16.032-27.328l140.288-81.568a31.68 31.68 0 0 1 18.432-6.08c12.8 0 20.8 7.456 24.448 11.904L512 582.656V352.064c0-17.632 14.368-32 32-32s32 14.368 32 32v319.904c0 13.664 8.64 25.12 20.704 29.632 5.088 1.92 10.816 0.672 14.656-3.168l41.888-41.888a95.2 95.2 0 0 1 67.776-28.064c14.432 0 28.544 3.2 41.408 9.344l-210.56 210.24zM528 96h32v128h-32zM351.648 182.272l22.624-22.64 90.512 90.512-22.624 22.624zM288 336h128v32h-128zM623.152 250.192l90.512-90.512 22.624 22.624-90.496 90.512zM672 336h128v32h-128z" p-id="9975" fill="#ffffff"></path></svg>