<?xml version="1.0" standalone="no"?><!DOCTYPE svg PUBLIC "-//W3C//DTD SVG 1.1//EN" "http://www.w3.org/Graphics/SVG/1.1/DTD/svg11.dtd"><svg t="1716663786029" class="icon" viewBox="0 0 1024 1024" version="1.1" xmlns="http://www.w3.org/2000/svg" p-id="2641" xmlns:xlink="http://www.w3.org/1999/xlink" width="64" height="64"><path d="M497.11104 842.46528c180.67456 0 327.68-147.00544 327.68-327.68s-147.00544-327.68-327.68-327.68-327.68 147.00544-327.68 327.68 147.00544 327.68 327.68 327.68z m0-614.4c158.1056 0 286.72 128.6144 286.72 286.72s-128.6144 286.72-286.72 286.72-286.72-128.6144-286.72-286.72 128.63488-286.72 286.72-286.72z" fill="#000000" p-id="2642"></path><path d="M608.8704 655.50336a20.41856 20.41856 0 0 0 28.95872 0 20.45952 20.45952 0 0 0 0-28.95872l-120.23808-120.23808V285.20448a20.48 20.48 0 1 0-40.96 0v229.5808c0 5.4272 2.1504 10.6496 6.00064 14.47936l126.23872 126.23872z" fill="#000000" p-id="2643"></path></svg>