<svg version="1.2" xmlns="http://www.w3.org/2000/svg" viewBox="0 0 1024 1024" width="1024" height="1024">
	<title>clock-svg</title>
	<style>
		.s0 { fill: #ffffff } 
		.s1 { fill: #a926d1 } 
	</style>
	<path id="Layer" fill-rule="evenodd" class="s0" d="m87.6 515.6c0-231.3 188.2-419.5 419.4-419.5 231.3 0 419.5 188.2 419.5 419.5 0 231.2-188.2 419.4-419.5 419.4-231.2 0-419.4-188.2-419.4-419.4zm786.4 0c0-203-164-367-367-367-202.9 0-367 164-367 367 0 202.9 164.1 367 367 367 203 0 367-164.1 367-367z"/>
	<path id="Layer" class="s1" d="m650.1 695.7c2.4 2.4 5.3 4.4 8.5 5.7 3.2 1.3 6.6 2 10 2 3.5 0 6.9-0.7 10-2 3.2-1.3 6.1-3.3 8.5-5.7 2.5-2.4 4.4-5.3 5.7-8.5 1.3-3.2 2-6.6 2-10 0-3.5-0.7-6.9-2-10.1-1.3-3.2-3.2-6.1-5.7-8.5l-153.9-153.9v-283c0-7-2.7-13.6-7.6-18.5-5-5-11.6-7.7-18.6-7.7-6.9 0-13.6 2.7-18.5 7.7-4.9 4.9-7.7 11.5-7.7 18.5v293.9c0 6.9 2.8 13.6 7.7 18.5z"/>
</svg>