<?xml version="1.0" standalone="no"?><!DOCTYPE svg PUBLIC "-//W3C//DTD SVG 1.1//EN" "http://www.w3.org/Graphics/SVG/1.1/DTD/svg11.dtd"><svg t="1717842548934" class="icon" viewBox="0 0 1024 1024" version="1.1" xmlns="http://www.w3.org/2000/svg" p-id="11090" xmlns:xlink="http://www.w3.org/1999/xlink" width="64" height="64"><path d="M982.14025 0 98.18689 0C76.260001 0.180718 58.609163 18.06145 58.71219 39.988842L58.71219 246.217015 36.5041 246.217015C17.132201 246.217015 1.428173 261.921043 1.428173 281.292943 1.428173 300.664843 17.132201 316.36887 36.5041 316.36887L58.655063 316.36887 58.655063 476.581311 36.446974 476.581311C17.102961 476.612814 1.436024 492.29892 1.428173 511.642957 1.428173 531.014856 17.132201 546.718884 36.5041 546.718884L58.655063 546.718884 58.655063 706.917043 36.446974 706.917043C17.075074 706.917043 1.371046 722.621069 1.371046 741.992973 1.371046 751.295686 5.066535 760.217382 11.644547 766.795398 18.22256 773.373408 27.144259 777.068896 36.446974 777.068896L58.655063 777.068896 58.655063 983.297069C58.552036 1005.224461 76.202874 1023.105197 98.129763 1023.285914L982.083123 1023.285914C1004.010016 1023.105197 1021.660851 1005.224461 1021.557824 983.297069L1021.557824 40.031688C1021.660851 18.104295 1004.010016 0.223563 982.083123 0.042845L982.083123 0.042845 982.14025 0ZM105.484854 777.068896 125.365021 777.068896C144.736921 777.068896 160.440948 761.36487 160.440948 741.992973 160.440948 722.621069 144.736921 706.917043 125.365021 706.917043L105.484854 706.917043 105.484854 546.733166 125.365021 546.733166C134.670211 546.733167 143.594075 543.035718 150.172498 536.454616 156.750921 529.873514 160.444737 520.948145 160.440948 511.642957 160.440948 492.271057 144.736921 476.567029 125.365021 476.567029L105.484854 476.567029 105.484854 316.411715 125.365021 316.411715C144.736921 316.411715 160.440948 300.707688 160.440948 281.335788 160.440948 261.963888 144.736921 246.25986 125.365021 246.25986L105.484854 246.25986 105.484854 46.758382 223.566193 46.758382 223.566193 976.49897 105.484854 976.49897 105.484854 777.054618 105.484854 777.054618 105.484854 777.068896ZM974.842285 976.570374 270.338856 976.570374 270.338856 46.829791 974.842285 46.829791 974.842285 976.570374 974.842285 976.570374 974.842285 976.570374Z" fill="#ffffff" p-id="11091"></path><path d="M777.71721 831.350259C804.081728 831.921536 853.511629 784.60537 853.754426 758.226566 854.125754 719.80807 790.342477 660.137997 760.164672 636.358515 749.924499 628.289201 723.445728 620.034223 710.449133 620.762603 696.424237 621.548111 673.730189 636.972639 654.392397 624.175994 622.972064 603.352881 560.774083 499.922852 558.36043 462.346988 557.103617 442.65215 555.918213 420.429405 581.754297 395.564494 593.694024 384.138918 611.974947 367.786062 614.417164 342.435564 617.459223 310.886692 596.179087 243.161588 585.653275 213.255142 578.340906 192.489158 550.562474 190.40399 534.95228 192.774797 518.956474 195.274141 479.381133 203.986143 473.539808 213.255142 359.284045 394.122015 596.164805 827.379866 777.745779 831.350259L777.745779 831.350259 777.71721 831.350259Z" fill="#ffffff" p-id="11092"></path></svg>