<?xml version="1.0" standalone="no"?><!DOCTYPE svg PUBLIC "-//W3C//DTD SVG 1.1//EN" "http://www.w3.org/Graphics/SVG/1.1/DTD/svg11.dtd"><svg t="1716707587378" class="icon" viewBox="0 0 1024 1024" version="1.1" xmlns="http://www.w3.org/2000/svg" p-id="10255" xmlns:xlink="http://www.w3.org/1999/xlink" width="64" height="64"><path d="M1000 753.528h-128c-8.832 0-20-4.696-20-13.528s7.168-16 16-16h120l-4-125.648-43.904-146.352H776a16 16 0 0 1 0-32h176a16 16 0 0 1 15.328 11.408L1012 588c0.448 1.48 0 6.448 0 8v136c0.056 0.864 0.032 7.04 0 8-0.224 8.664-3.328 13.528-12 13.528z" p-id="10256" fill="#ffffff"></path><path d="M772 668.016a16 16 0 0 1-16-16V374.488a16 16 0 0 1 32 0v277.528a16 16 0 0 1-16 16zM284 772h-40c-30.872 0-56-25.128-56-56V356.072a24 24 0 1 1 48 0V716c0 4.336 3.664 8 8 8h40a24 24 0 1 1 0 48z" p-id="10257" fill="#ffffff"></path><path d="M1000 772h-148v-48h128v-136l-69.472-200H779.92v-48h148.112a24 24 0 0 1 22.848 16.656L1012 580c0.76 2.376 0 5.504 0 8v160c0 16 1.256 24-12 24zM448 716h240v48H448zM144 564H24a24 24 0 1 1 0-48h120a24 24 0 1 1 0 48zM144 460H64.768a24 24 0 1 1 0-48H144a24 24 0 1 1 0 48zM144 668H64.768a24 24 0 1 1 0-48H144a24 24 0 1 1 0 48zM429.824 519.648C395.736 519.648 368 491.92 368 457.84c0-34.088 27.736-61.816 61.824-61.816s61.816 27.736 61.816 61.816c-0.008 34.08-27.736 61.808-61.816 61.808z m0-91.632c-16.448 0-29.824 13.376-29.824 29.816s13.376 29.816 29.824 29.816a29.848 29.848 0 0 0 29.816-29.816 29.864 29.864 0 0 0-29.816-29.816zM554.176 644.016c-34.088 0-61.816-27.736-61.816-61.824 0-34.088 27.728-61.816 61.816-61.816S616 548.104 616 582.192s-27.736 61.824-61.824 61.824z m0-91.632a29.848 29.848 0 0 0-29.816 29.816 29.856 29.856 0 0 0 29.816 29.824A29.856 29.856 0 0 0 584 582.2a29.856 29.856 0 0 0-29.824-29.816z" p-id="10258" fill="#ffffff"></path><path d="M397.096 630.92a16 16 0 0 1-11.312-27.312L575.6 413.792a16 16 0 1 1 22.624 22.624L408.408 626.232a15.952 15.952 0 0 1-11.312 4.688zM377.712 853.816c-57.848 0-104.896-47.056-104.896-104.896s47.056-104.896 104.896-104.896 104.896 47.056 104.896 104.896-47.056 104.896-104.896 104.896z m0-177.8c-40.192 0-72.896 32.704-72.896 72.896s32.704 72.896 72.896 72.896 72.896-32.704 72.896-72.896-32.704-72.896-72.896-72.896z" p-id="10259" fill="#ffffff"></path><path d="M377.712 864.912c-68.248 0-121.712-51.376-121.712-116.968v-24h48v24c0 38.672 32.376 68.968 73.712 68.968 40.728 0 70.288-29.008 70.288-68.968v-24h48v24c0 66.68-50.848 116.968-118.288 116.968z" p-id="10260" fill="#ffffff"></path><path d="M377.712 748.912m-32.896 0a32.896 32.896 0 1 0 65.792 0 32.896 32.896 0 1 0-65.792 0Z" p-id="10261" fill="#ffffff"></path><path d="M769.712 853.816c-57.84 0-104.896-47.056-104.896-104.896s47.056-104.896 104.896-104.896 104.896 47.056 104.896 104.896-47.056 104.896-104.896 104.896z m0-177.8c-40.192 0-72.896 32.704-72.896 72.896s32.704 72.896 72.896 72.896 72.896-32.704 72.896-72.896-32.704-72.896-72.896-72.896z" p-id="10262" fill="#ffffff"></path><path d="M769.712 864.912c-68.248 0-121.712-51.376-121.712-116.968v-24h48v24c0 38.672 32.376 68.968 73.712 68.968 40.728 0 70.288-29.008 70.288-68.968v-24h48v24c0 66.68-50.848 116.968-118.288 116.968z" p-id="10263" fill="#ffffff"></path><path d="M769.712 748.912m-32.896 0a32.896 32.896 0 1 0 65.792 0 32.896 32.896 0 1 0-65.792 0Z" p-id="10264" fill="#ffffff"></path><path d="M776 379.656a24 24 0 0 1-22.52-15.728l-38.152-103.736a3.536 3.536 0 0 0-0.28-0.2H273.68a4.736 4.736 0 0 0-0.896 0.6l-42.56 104.136a24.016 24.016 0 0 1-44.44-18.168l42.856-104.832c7.04-17.216 25.656-29.728 44.272-29.728H716c18.968 0 37.496 12.92 44.048 30.728l38.48 104.64A24 24 0 0 1 776 379.656z" p-id="10265" fill="#ffffff"></path><path d="M760 388H208a16 16 0 0 1 0-32h552a16 16 0 0 1 0 32z" p-id="10266" fill="#ffffff"></path></svg>