<?xml version="1.0" standalone="no"?><!DOCTYPE svg PUBLIC "-//W3C//DTD SVG 1.1//EN" "http://www.w3.org/Graphics/SVG/1.1/DTD/svg11.dtd"><svg t="1710607776474" class="icon" viewBox="0 0 1024 1024" version="1.1" xmlns="http://www.w3.org/2000/svg" p-id="9150" xmlns:xlink="http://www.w3.org/1999/xlink" width="64" height="64"><path d="M916.6976 516.3008c-5.888-16.5376-24.4736-29.9008-41.472-29.9008h-40.0896l-12.8-34.6624c-21.504 11.9808-45.2608 20.3776-70.5536 24.4224 1.8432 6.8096 3.6864 13.6704 5.4272 20.48 0 0-92.0576-10.8544-293.376-10.8544-201.3184 0-293.0688 10.9056-293.0688 10.9056 24.3712-98.048 50.8928-153.3952 56.7808-168.8576 4.6592-11.264 0.768-39.168 236.288-39.168 13.824 0 26.7264 0.1024 38.912 0.3072a209.408 209.408 0 0 1 4.096-66.816c-13.312-0.2048-27.648-0.3072-43.008-0.3072-155.7504 0-202.4448 10.8544-202.4448 10.8544-37.1712 7.168-78.2336 25.5488-96.256 58.88-8.4992 15.7696-44.2368 114.5856-73.3184 194.9184h-38.912c-17.0496 0-35.6352 13.3632-41.472 29.9008l-10.6496 50.9952c-3.1744 16.128 3.2768 29.9008 20.3264 29.9008h46.1824c-3.1744 8.96-7.68 17.1008-8.7552 22.016a94.464 94.464 0 0 0-2.3552 25.7024v256.5632a32.256 32.256 0 0 0 32.768 31.6928h125.7472a32.256 32.256 0 0 0 32.6656-31.6928V837.632h431.8208v64a32.256 32.256 0 0 0 32.7168 31.6416h129.792c18.0736 0 29.7472-14.1824 29.7472-31.6928v-256.6144c0-16.9984-1.9456-27.5456-5.3248-34.4576-1.024-2.1504-4.4544-8.8064-5.9392-12.9024h46.7456c17.0496 0 20.8384-11.1616 20.3264-29.9008l-10.5472-51.4048zM280.5888 732.5696h-51.0976c-45.7728 0-91.4944-6.5536-91.4944-37.632v-34.2016c0-36.352 19.712-37.632 40.96-37.632 20.7872 0 61.952 18.7904 88.9856 31.744 29.5424 14.1312 62.5664 22.4768 62.5664 45.9776 0 21.76-11.4176 31.744-49.92 31.744z m417.28 0.256h-51.2c-38.4 0-49.8688-9.984-49.8688-31.744 0-23.6032 33.024-31.8464 62.5152-45.9776 27.136-12.9536 68.1984-31.744 88.9856-31.744 21.248 0 40.96 1.28 40.96 37.632v34.1504h0.1024c0 31.1296-45.7216 37.6832-91.4944 37.6832z m312.2176-328.5504l-91.136-61.184a29.7984 29.7984 0 0 0-41.984 9.0112l-11.008 17.4592a31.9488 31.9488 0 0 0 9.0624 43.3152l91.136 61.184a29.696 29.696 0 0 0 41.984-9.0624l10.9568-17.408a32 32 0 0 0-9.0112-43.3152z m-128.5632-178.688c-19.3024-91.5968-107.264-150.3744-196.608-131.2768-89.2928 19.1488-146.0224 108.8512-126.7712 200.4992 19.3024 91.648 107.264 150.3744 196.608 131.2768 89.2928-19.0976 146.0736-108.8512 126.7712-200.4992z m-136.9088 154.368c-63.8976 13.824-126.8224-28.5184-140.5952-94.72-13.7728-66.1504 26.88-130.9696 90.7776-144.8448 63.8976-13.824 126.8224 28.5696 140.544 94.72 13.824 66.2016-26.8288 131.072-90.7264 144.896z" fill="#FF9E30" p-id="9151"></path></svg>