<?xml version="1.0" standalone="no"?><!DOCTYPE svg PUBLIC "-//W3C//DTD SVG 1.1//EN" "http://www.w3.org/Graphics/SVG/1.1/DTD/svg11.dtd"><svg t="1716822586523" class="icon" viewBox="0 0 1024 1024" version="1.1" xmlns="http://www.w3.org/2000/svg" p-id="4829" xmlns:xlink="http://www.w3.org/1999/xlink" width="64" height="64"><path d="M106.666667 490.666667H74.666667C34.133333 490.666667 0 456.533333 0 413.866667v-27.733334c0-17.066667 4.266667-32 14.933333-44.8 4.266667-4.266667 6.4-10.666667 6.4-19.2V256c0-12.8 8.533333-21.333333 21.333334-21.333333s21.333333 8.533333 21.333333 21.333333v68.266667c0 17.066667-4.266667 32-14.933333 44.8-4.266667 4.266667-6.4 10.666667-6.4 17.066666v27.733334c0 19.2 14.933333 34.133333 32 34.133333H106.666667c12.8 0 21.333333 8.533333 21.333333 21.333333s-8.533333 21.333333-21.333333 21.333334zM900.266667 499.2c-12.8 0-21.333333-8.533333-21.333334-21.333333s8.533333-21.333333 21.333334-21.333334h17.066666c17.066667 0 34.133333-6.4 44.8-19.2 12.8-12.8 19.2-27.733333 19.2-44.8v-44.8c0-51.2-36.266667-96-89.6-106.666666L723.2 213.333333l-14.933333-14.933333c-61.866667-83.2-153.6-136.533333-256-151.466667-102.4-14.933333-204.8 12.8-288 74.666667-32 23.466667-59.733333 51.2-83.2 83.2l-6.4 8.533333H21.333333c-12.8 0-21.333333-8.533333-21.333333-21.333333s8.533333-21.333333 21.333333-21.333333h32c23.466667-32 53.333333-59.733333 85.333334-83.2 189.866667-142.933333 460.8-104.533333 603.733333 85.333333l2.133333 2.133333 155.733334 25.6c72.533333 12.8 123.733333 74.666667 123.733333 147.2v44.8c0 29.866667-10.666667 55.466667-32 76.8-19.2 19.2-46.933333 32-74.666667 32h-17.066666zM277.333333 448h452.266667v42.666667H277.333333z" fill="#ffffff" p-id="4830"></path><path d="M812.8 554.666667c-59.733333 0-106.666667-46.933333-106.666667-106.666667s46.933333-106.666667 106.666667-106.666667 106.666667 46.933333 106.666667 106.666667-46.933333 106.666667-106.666667 106.666667z m0-170.666667c-36.266667 0-64 27.733333-64 64s27.733333 64 64 64 64-27.733333 64-64-27.733333-64-64-64zM196.266667 554.666667c-59.733333 0-106.666667-46.933333-106.666667-106.666667s46.933333-106.666667 106.666667-106.666667 106.666667 46.933333 106.666666 106.666667-49.066667 106.666667-106.666666 106.666667z m0-170.666667c-36.266667 0-64 27.733333-64 64s27.733333 64 64 64 64-27.733333 64-64-29.866667-64-64-64zM661.333333 405.333333h-170.666666c-59.733333 0-106.666667-46.933333-106.666667-106.666666V106.666667c0-12.8 8.533333-21.333333 21.333333-21.333334s21.333333 8.533333 21.333334 21.333334v192c0 36.266667 27.733333 64 64 64h170.666666c12.8 0 21.333333 8.533333 21.333334 21.333333s-8.533333 21.333333-21.333334 21.333333z" fill="#ffffff" p-id="4831"></path><path d="M661.333333 256H106.666667c-12.8 0-21.333333-8.533333-21.333334-21.333333s8.533333-21.333333 21.333334-21.333334h554.666666c12.8 0 21.333333 8.533333 21.333334 21.333334s-8.533333 21.333333-21.333334 21.333333z" fill="#ffffff" p-id="4832"></path><path d="M998.4 352h-46.933333c-46.933333 0-85.333333-38.4-85.333334-85.333333v-46.933334h42.666667v46.933334c0 23.466667 19.2 42.666667 42.666667 42.666666h46.933333v42.666667z" fill="#ffffff" p-id="4833"></path><path d="M682.666667 1024H362.666667v-51.2l130.133333-132.266667L277.333333 622.933333V597.333333H42.666667v42.666667h192c12.8 0 21.333333 8.533333 21.333333 21.333333s-8.533333 21.333333-21.333333 21.333334H0v-128h320v51.2l202.666667 204.8 202.666666-204.8V554.666667h298.666667v128H810.666667c-12.8 0-21.333333-8.533333-21.333334-21.333334s8.533333-21.333333 21.333334-21.333333h170.666666v-42.666667H768v25.6L552.533333 840.533333l130.133334 132.266667V1024z m-268.8-42.666667h217.6l-108.8-108.8-108.8 108.8z" fill="#ffffff" p-id="4834"></path><path d="M1002.666667 1024H725.333333v-72.533333l-202.666666-202.666667-202.666667 202.666667V1024H21.333333c-12.8 0-21.333333-8.533333-21.333333-21.333333s8.533333-21.333333 21.333333-21.333334h256v-46.933333l215.466667-215.466667-130.133333-130.133333V554.666667h320v34.133333l-130.133334 130.133333L768 934.4V981.333333h234.666667c12.8 0 21.333333 8.533333 21.333333 21.333334s-8.533333 21.333333-21.333333 21.333333zM430.933333 597.333333l91.733334 91.733334 91.733333-91.733334h-183.466667z" fill="#ffffff" p-id="4835"></path></svg>