<?xml version="1.0" standalone="no"?><!DOCTYPE svg PUBLIC "-//W3C//DTD SVG 1.1//EN" "http://www.w3.org/Graphics/SVG/1.1/DTD/svg11.dtd"><svg t="1717084853418" class="icon" viewBox="0 0 1024 1024" version="1.1" xmlns="http://www.w3.org/2000/svg" p-id="7347" xmlns:xlink="http://www.w3.org/1999/xlink" width="64" height="64"><path d="M184.59242 15.458466h549.480054c87.680858 0 160.029488 68.525774 160.029487 151.599568v179.309534c0 83.075069-72.349905 151.347091-160.029487 151.347091H372.372678l-51.19796 97.069679v0.255027c-19.12703 34.540867-72.376683 33.731156-89.710873-0.255027l-51.515468-97.069679C94.321762 495.261298 24.854938 427.267255 24.854938 346.367568V167.063134c0-83.075069 72.056624-151.599568 159.737482-151.599568z m549.480054 77.305081H184.59242c-42.838172 0-78.118617 34.00531-78.118618 74.299587v179.309534c0 40.563331 35.280445 73.76403 78.118618 73.76403h14.182055a52.153036 52.153036 0 0 1 45.40247 26.290741l32.133411 61.971579 32.133411-61.971579c8.120062-15.612757 26.040814-26.290741 44.842685-26.290741h380.786022c43.132729 0 79.001011-33.200699 79.001011-73.76403v-179.309534c0-40.284076-36.161564-74.294487-79.001011-74.294486z m136.901082 539.572252H500.595189c-25.502707 0-46.337144 20.274652-46.337143 44.132435v123.36042c0 24.393339 20.831886 44.156662 46.337143 44.156662h244.777534a50.12047 50.12047 0 0 1 44.84141 26.873478l13.325165 25.199225 13.299661-25.203051a50.737636 50.737636 0 0 1 45.456026-26.873477h8.678571c26.012761 0 46.871426-19.764598 46.871425-44.156663v-123.356594c0-23.862883-20.857389-44.132435-46.871425-44.132435z m-370.378367-77.305081h370.378367c70.56089 0 128.168955 54.809143 128.168955 121.437516v123.36042c0 63.337248-51.785797 116.528245-117.779152 120.931287l-32.983927 61.9448c-17.654249 33.731156-71.468787 35.098101-89.684095 0l-32.422866-61.414344H500.595189c-70.053386 0-128.222511-55.085847-128.222511-121.461743v-123.36042c0-66.628373 58.169125-121.437516 128.222511-121.437516z" fill="#ffffff" p-id="7348"></path></svg>