<?xml version="1.0" standalone="no"?><!DOCTYPE svg PUBLIC "-//W3C//DTD SVG 1.1//EN" "http://www.w3.org/Graphics/SVG/1.1/DTD/svg11.dtd"><svg t="1719861432453" class="icon" viewBox="0 0 1024 1024" version="1.1" xmlns="http://www.w3.org/2000/svg" p-id="21788" xmlns:xlink="http://www.w3.org/1999/xlink" width="64" height="64"><path d="M139.634224 883.068224l742.566236-5.143137c42.202171-0.285502 76.78992-35.147498 77.082586-77.69657l3.148713-458.293821c0.292666-42.541909-33.815153-76.939323-76.021417-76.635401l-212.882482 1.475608c-5.396917-37.743626-31.487132-128.752386-157.514453-127.877459-126.027321 0.870834-153.364947 92.258217-159.284773 130.069381l-212.884528 1.475608c-42.204218 0.294712-76.785827 35.147498-77.080539 77.689407l-3.148713 458.300984C63.322188 848.982918 97.430006 883.371122 139.634224 883.068224zM882.422518 845.684802l-742.566236 5.143137c-24.568559 0.169869-44.420699-19.844977-44.252877-44.623313l2.12643-309.75274 319.882448-2.210341-0.369414 53.907771c-0.162706 23.614837 18.761296 42.700521 42.187845 42.532699l106.96415-0.740874c23.426549-0.169869 42.614563-19.509333 42.775222-43.12417l0.369414-53.91391 319.882448-2.208295-2.130524 309.75274C927.124626 825.225841 906.992099 845.50777 882.422518 845.684802zM577.555042 493.131257l-0.37146 53.91391c-0.042979 5.831822-4.773723 10.606569-10.567683 10.638291l-106.962104 0.750083c-5.796006 0.042979-10.465352-4.669346-10.42442-10.504238l0.373507-53.92312L577.555042 493.131257zM515.793396 171.127496c97.925287-0.673335 120.374578 64.690348 125.551484 95.866395l-252.538667 1.753947C394.223596 237.485833 417.252079 171.812087 515.793396 171.127496zM143.621025 302.681694l742.571353-5.143137c24.564465-0.167822 44.418652 19.854187 44.25083 44.62229l-0.800225 116.294656-831.689043 5.757121 0.798179-116.29261C98.924034 323.142701 119.054513 302.848493 143.621025 302.681694z" p-id="21789" fill="#00386B"></path></svg>