<?xml version="1.0" standalone="no"?><!DOCTYPE svg PUBLIC "-//W3C//DTD SVG 1.1//EN" "http://www.w3.org/Graphics/SVG/1.1/DTD/svg11.dtd"><svg t="1717954192591" class="icon" viewBox="0 0 1024 1024" version="1.1" xmlns="http://www.w3.org/2000/svg" p-id="6695" xmlns:xlink="http://www.w3.org/1999/xlink" width="64" height="64"><path d="M893.75 606.105c-60.277-13.396-113.855-40.185-164.086-73.672l-16.744-10.047-16.742 10.047c-10.045 6.698-23.441 16.743-36.834 23.44-40.188 23.442-83.719 40.185-127.252 50.231L512 609.453v180.83l3.348 3.35c3.349 3.349 3.349 6.697 6.697 13.394 10.047 16.744 20.094 30.14 33.486 46.883 16.744 20.092 40.186 40.185 60.277 53.578 26.791 16.744 56.928 30.139 87.066 40.185l6.697 3.35 6.697-3.35c30.139-10.046 60.277-23.44 87.068-40.185 23.438-13.394 43.531-33.486 60.273-53.578 13.396-13.396 23.443-30.139 33.488-46.883 3.348-3.349 3.348-10.045 6.697-13.394l3.348-3.35v-180.83l-13.392-3.348z m-33.486 174.132c-6.697 16.744-16.742 30.138-30.139 43.533-13.395 16.743-33.484 33.487-50.23 43.532-20.092 13.396-43.531 23.442-66.975 30.14-23.439-6.699-46.881-16.744-66.973-30.14-20.092-13.394-36.836-26.789-50.23-43.532-10.045-13.396-20.092-23.44-26.789-36.836l-3.35-3.349v-130.6c53.578-16.742 100.461-36.836 147.342-66.974 6.699 6.697 16.744 10.046 26.791 16.744 36.836 23.44 80.369 40.185 120.553 53.579v123.903z" p-id="6696" fill="#000000"></path><path d="M666.039 730.007c-10.047-6.697-23.439-3.349-30.139 6.698-3.348 3.349-3.348 10.045-3.348 16.743 0 6.697 3.348 10.046 10.047 13.394l40.184 26.791c10.045 6.697 20.092 3.349 26.789-3.35l77.02-73.671c3.348-3.35 6.697-10.047 6.697-16.743 0-6.698-3.35-10.047-6.697-16.744-10.045-6.696-23.439-6.696-30.139 0l-63.625 63.625-26.789-16.743z" p-id="6697" fill="#000000"></path><path d="M880.357 100.452c-20.094-20.092-46.885-30.138-73.672-30.138H217.314c-56.928-3.349-107.158 46.882-107.158 103.81v669.739c0 60.276 46.882 107.159 107.158 107.159h214.317c13.395 0 26.79-10.047 26.79-26.79 0-16.744-10.046-26.789-26.79-26.789H217.314c-30.138 0-53.58-23.441-53.58-53.58v-669.74c0-30.138 23.441-53.579 53.58-53.579h589.372c30.139 0 53.578 23.441 53.578 53.579v254.501c0 13.395 10.045 26.79 26.791 26.79 16.742 0 26.789-13.396 26.789-26.79V174.123c0-26.79-13.397-53.579-33.487-73.671z" p-id="6698" fill="#000000"></path><path d="M445.025 589.361H297.683c-13.395 0-26.79 10.047-26.79 26.789 0 16.744 13.395 26.791 26.79 26.791h147.343c13.395 0 26.79-10.047 26.79-26.791-0.001-16.742-13.396-26.789-26.791-26.789zM297.683 321.466h428.634c10.045 0 16.744-3.349 23.439-13.395 3.35-6.697 3.35-16.743 0-26.789-3.348-6.698-13.393-13.396-23.439-13.396H297.683c-10.046 0-16.744 6.698-23.44 13.396-3.349 10.046-3.349 20.092 0 26.79 6.696 10.045 13.394 13.394 23.44 13.394z m0 160.737h428.634c13.395 0 26.789-10.046 26.789-26.79 0-13.395-10.045-26.789-26.789-26.789H297.683c-13.395 0-26.79 10.046-26.79 26.789 0 13.396 13.395 26.79 26.79 26.79z" p-id="6699" fill="#000000"></path></svg>