<?xml version="1.0" standalone="no"?><!DOCTYPE svg PUBLIC "-//W3C//DTD SVG 1.1//EN" "http://www.w3.org/Graphics/SVG/1.1/DTD/svg11.dtd"><svg t="1717864199514" class="icon" viewBox="0 0 1024 1024" version="1.1" xmlns="http://www.w3.org/2000/svg" p-id="9110" xmlns:xlink="http://www.w3.org/1999/xlink" width="64" height="64"><path d="M0 0m0 0l1024 0q0 0 0 0l0 1024q0 0 0 0l-1024 0q0 0 0 0l0-1024q0 0 0 0Z" fill="#00386B" p-id="9111"></path><path d="M85.333333 512a426.666667 426.666667 0 1 0 853.333334 0 426.666667 426.666667 0 1 0-853.333334 0Z" fill="#C13584" p-id="9112"></path><path d="M512 302.122667c68.352 0 76.458667 0.256 103.445333 1.493333 24.96 1.130667 38.506667 5.312 47.530667 8.810667 11.946667 4.650667 20.48 10.197333 29.44 19.157333 8.96 8.96 14.506667 17.493333 19.157333 29.44 3.498667 9.024 7.68 22.570667 8.810667 47.530667 1.237333 26.986667 1.493333 35.093333 1.493333 103.445333s-0.256 76.458667-1.493333 103.445333c-1.130667 24.96-5.312 38.506667-8.810667 47.530667-4.650667 11.946667-10.197333 20.48-19.157333 29.44-8.96 8.96-17.493333 14.506667-29.44 19.157333-9.024 3.498667-22.570667 7.68-47.530667 8.810667-26.986667 1.237333-35.093333 1.493333-103.445333 1.493333s-76.458667-0.256-103.445333-1.493333c-24.96-1.152-38.506667-5.312-47.530667-8.810667a79.317333 79.317333 0 0 1-29.44-19.157333c-8.96-8.96-14.506667-17.493333-19.157333-29.44-3.498667-9.024-7.68-22.570667-8.810667-47.530667-1.237333-26.986667-1.493333-35.093333-1.493333-103.466666 0-68.330667 0.256-76.437333 1.493333-103.424 1.130667-24.96 5.312-38.506667 8.810667-47.530667 4.650667-11.946667 10.197333-20.48 19.157333-29.44 8.96-8.96 17.493333-14.506667 29.44-19.157333 9.024-3.498667 22.570667-7.68 47.530667-8.810667 26.986667-1.237333 35.093333-1.493333 103.445333-1.493333zM512 256c-69.525333 0-78.250667 0.298667-105.557333 1.536-27.242667 1.237333-45.866667 5.568-62.122667 11.904a125.504 125.504 0 0 0-45.354667 29.525333 125.482667 125.482667 0 0 0-29.525333 45.354667c-6.336 16.277333-10.666667 34.88-11.904 62.122667C256.298667 433.749333 256 442.474667 256 512c0 69.525333 0.298667 78.250667 1.536 105.557333 1.237333 27.242667 5.568 45.866667 11.904 62.122667 6.549333 16.853333 15.296 31.125333 29.525333 45.354667a125.482667 125.482667 0 0 0 45.354667 29.525333c16.277333 6.336 34.88 10.666667 62.122667 11.904 27.306667 1.237333 36.032 1.536 105.557333 1.536 69.525333 0 78.250667-0.298667 105.557333-1.536 27.242667-1.258667 45.866667-5.568 62.122667-11.904a125.44 125.44 0 0 0 45.354667-29.525333 125.482667 125.482667 0 0 0 29.525333-45.354667c6.336-16.277333 10.666667-34.88 11.904-62.122667 1.237333-27.306667 1.536-36.032 1.536-105.557333 0-69.525333-0.298667-78.250667-1.536-105.557333-1.237333-27.242667-5.568-45.866667-11.904-62.122667a125.482667 125.482667 0 0 0-29.525333-45.354667 125.482667 125.482667 0 0 0-45.333334-29.525333c-16.298667-6.336-34.901333-10.666667-62.144-11.904C590.250667 256.298667 581.525333 256 512 256z" fill="#FFFFFF" p-id="9113"></path><path d="M512.128 380.650667a131.456 131.456 0 1 0 0 262.912 131.456 131.456 0 0 0 0-262.912z m0 216.789333a85.333333 85.333333 0 1 1 0-170.666667 85.333333 85.333333 0 0 1 0 170.666667zM679.466667 375.381333a30.72 30.72 0 1 1-61.44 0 30.72 30.72 0 0 1 61.44 0z" fill="#FFFFFF" p-id="9114"></path></svg>