<?xml version="1.0" standalone="no"?><!DOCTYPE svg PUBLIC "-//W3C//DTD SVG 1.1//EN" "http://www.w3.org/Graphics/SVG/1.1/DTD/svg11.dtd"><svg t="1714635761515" class="icon" viewBox="0 0 1024 1024" version="1.1" xmlns="http://www.w3.org/2000/svg" p-id="1629" xmlns:xlink="http://www.w3.org/1999/xlink" width="64" height="64"><path d="M210.925429 429.66075c12.493495-78.530542 110.656672-162.415438 187.402429-164.200223 5.354355 0 10.70871-1.784785 14.27828-5.354355 3.56957-1.784785 7.13914-3.56957 8.923925-8.923925 26.771776-49.973981 12.493495-89.239252-32.126131-121.365382-51.758766-37.480486-133.858878 0-174.908933 33.910915-103.517532 85.669682-208.819849 233.803923-203.465494 374.804858-17.84785 94.596523-14.27828 196.326354 12.493495 280.21125 17.84785 53.543551 69.606616 80.315327 123.150168 83.884897 53.543551 3.572486 164.200223 19.632635 212.389419-12.490579 48.189196-32.129047 51.758766-94.596523 57.113121-148.137158 5.354355-58.897906 21.41742-169.557495-28.556561-215.961906-49.973981-44.619626-192.756784 3.56957-176.693718-96.378392zM799.904491 429.66075c12.493495-78.530542 110.653756-162.415438 187.402428-164.200223 5.354355 0 10.70871-1.784785 14.278281-5.354355 3.572486-1.784785 7.13914-3.56957 8.926841-8.923925 26.771776-49.973981 12.493495-89.239252-32.12613-121.365382-51.758766-37.480486-133.858878 0-174.91185 33.910915-103.517532 85.669682-208.819849 233.80684-203.465494 374.804858-17.84785 94.596523-14.27828 196.326354 12.490579 280.21125 17.84785 53.543551 69.606616 80.315327 123.153083 83.884897 53.543551 3.572486 164.200223 19.632635 212.38942-12.490579 48.18628-32.129047 51.758766-94.596523 57.113121-148.137158 5.354355-58.897906 21.41742-169.557495-28.556561-215.961906-49.973981-44.619626-194.541569 3.56957-176.693718-96.378392z" p-id="1630" fill="#FF9E30"></path></svg>