<?xml version="1.0" standalone="no"?><!DOCTYPE svg PUBLIC "-//W3C//DTD SVG 1.1//EN" "http://www.w3.org/Graphics/SVG/1.1/DTD/svg11.dtd"><svg t="1716991339501" class="icon" viewBox="0 0 1024 1024" version="1.1" xmlns="http://www.w3.org/2000/svg" p-id="2648" xmlns:xlink="http://www.w3.org/1999/xlink" width="64" height="64"><path d="M224 144m16 0l576 0q16 0 16 16l0 416q0 16-16 16l-576 0q-16 0-16-16l0-416q0-16 16-16Z" p-id="2649" fill="#A926D1"></path><path d="M958.88 842.08L890.88 672a75.68 75.68 0 0 0-26.08-32A79.04 79.04 0 0 0 896 576V160a80 80 0 0 0-80-80H240a80 80 0 0 0-80 80v416a78.56 78.56 0 0 0 28.64 61.12h0.96a96 96 0 0 0-35.52 38.08L66.72 839.04v1.44a21.44 21.44 0 0 0-1.12 2.88 13.44 13.44 0 0 0-1.6 4.64 112 112 0 0 0 112 112h672a112 112 0 0 0 112-109.6 18.56 18.56 0 0 0-1.12-8.32zM209.12 612.64A48 48 0 0 1 192 576V160a48 48 0 0 1 48-48h576a48 48 0 0 1 48 48v416a48 48 0 0 1-18.56 37.76A48 48 0 0 1 816 624H239.04a46.08 46.08 0 0 1-29.92-11.36z m-26.88 77.6A64 64 0 0 1 240 656h576.96a46.72 46.72 0 0 1 44.16 27.68l59.2 148.32H652.48L640 780.16a16 16 0 0 0-16-12.16H400a16 16 0 0 0-16 12.16L371.52 832H106.72zM617.44 848H406.56l-4.8-4.96 10.72-43.04h199.04l10.72 43.04z" p-id="2650" fill="#ffffff"></path></svg>