<?xml version="1.0" standalone="no"?><!DOCTYPE svg PUBLIC "-//W3C//DTD SVG 1.1//EN" "http://www.w3.org/Graphics/SVG/1.1/DTD/svg11.dtd"><svg t="1707075137925" class="icon" viewBox="0 0 1024 1024" version="1.1" xmlns="http://www.w3.org/2000/svg" p-id="4230" xmlns:xlink="http://www.w3.org/1999/xlink" width="64" height="64"><path d="M938.666667 170.666667h-853.333334C37.546667 170.666667 0 208.213333 0 256v512C0 815.786667 37.546667 853.333333 85.333333 853.333333h853.333334c47.786667 0 85.333333-37.546667 85.333333-85.333333v-512C1024 208.213333 986.453333 170.666667 938.666667 170.666667zM368.64 542.72l-238.933333 204.8c-3.413333 3.413333-6.826667 3.413333-10.24 3.413333-3.413333 0-10.24-3.413333-13.653334-6.826666-6.826667-6.826667-6.826667-17.066667 3.413334-23.893334l238.933333-204.8c6.826667-6.826667 17.066667-6.826667 23.893333 3.413334 6.826667 6.826667 3.413333 17.066667-3.413333 23.893333z m133.12 3.413333c-23.893333 0-51.2-6.826667-68.266667-20.48L109.226667 303.786667c-6.826667-3.413333-10.24-17.066667-3.413334-23.893334 3.413333-6.826667 13.653333-10.24 23.893334-3.413333l324.266666 221.866667c27.306667 20.48 71.68 20.48 98.986667 0l341.333333-221.866667c6.826667-6.826667 17.066667-3.413333 23.893334 3.413333s3.413333 17.066667-3.413334 23.893334l-341.333333 221.866666c-20.48 13.653333-44.373333 20.48-71.68 20.48z m416.426667 197.973334c-3.413333 3.413333-6.826667 6.826667-13.653334 6.826666-3.413333 0-6.826667 0-10.24-3.413333l-238.933333-204.8c-6.826667-6.826667-6.826667-17.066667-3.413333-23.893333s17.066667-6.826667 23.893333-3.413334l238.933333 204.8c6.826667 6.826667 10.24 17.066667 3.413334 23.893334z" fill="#ffffff" p-id="4231"></path></svg>