<?xml version="1.0" standalone="no"?><!DOCTYPE svg PUBLIC "-//W3C//DTD SVG 1.1//EN" "http://www.w3.org/Graphics/SVG/1.1/DTD/svg11.dtd"><svg t="1717394986949" class="icon" viewBox="0 0 1024 1024" version="1.1" xmlns="http://www.w3.org/2000/svg" p-id="6122" xmlns:xlink="http://www.w3.org/1999/xlink" width="64" height="64"><path d="M515.01714286 633.69142857c-79.45142857 0-147.33714286-53.80571429-184.54857143-143.81714286-15.08571429-7.54285714-33.18857143-21.62285714-39.22285714-36.70857142-11.06285714-26.14857143-22.12571429-99.56571429-9.55428572-123.2 6.03428571-11.56571429 17.09714286-17.6 28.16-21.12-11.06285714-37.21142857-25.64571429-91.52 28.16-171.97714286 29.66857143-43.74857143 100.57142857-50.28571429 110.12571429-49.78285714 6.03428571 0.50285714 15.58857143-0.50285714 19.10857143-1.00571429 13.07428571-11.56571429 34.19428571-11.06285714 66.37714285-10.05714286 5.02857143 0 10.05714286 0.50285714 13.57714286 0.50285715 17.09714286 0 38.72 13.07428571 63.36 40.22857142 26.65142857-5.02857143 63.36-0.50285714 92.52571429 34.69714286 31.68 39.72571429 27.65714286 115.15428571 23.13142857 153.87428572 7.54285714 6.03428571 15.58857143 14.58285714 21.12 26.65142857 9.05142857 20.61714286 2.01142857 48.77714286-7.54285715 85.98857143-2.01142857 7.54285714-4.02285714 15.08571429-5.02857142 19.10857142-5.53142857 28.16-23.13142857 41.23428571-37.21142858 50.78857143-48.77714286 129.23428571-123.2 145.82857143-182.53714285 145.82857143zM342.53714286 430.53714286c3.52 4.02285714 13.57714286 10.56 18.10285714 12.06857143 8.04571429 2.51428571 15.58857143 9.05142857 18.10285714 17.09714285 40.22857143 109.62285714 113.64571429 117.66857143 135.77142857 117.66857143 44.25142857 0 94.53714286-9.05142857 132.75428572-117.16571428 2.01142857-5.53142857 6.03428571-10.56 11.06285714-14.58285715 1.50857143-1.00571429 3.52-2.01142857 4.52571429-2.51428571 12.06857143-8.04571429 15.08571429-10.56 16.09142857-17.09714286 1.00571429-6.03428571 3.52-13.57714286 5.53142857-22.62857143 3.52-12.06857143 11.06285714-40.73142857 10.05714286-50.28571428-1.50857143-3.52-5.53142857-5.02857143-6.53714286-5.02857143-15.08571429-3.52-22.62857143-17.09714286-20.61714286-32.18285714 6.53714286-40.22857143 9.05142857-107.10857143-9.05142857-129.23428572-18.60571429-24.13714286-43.74857143-12.57142857-44.75428571-12.06857143-11.56571429 5.53142857-25.64571429 2.01142857-33.69142857-7.04-12.06857143-14.58285714-28.66285714-29.66857143-35.70285715-34.19428571-4.02285714 0-8.04571429 0-12.57142857-0.50285714-8.04571429-0.50285714-23.63428571-1.00571429-31.17714286 0-17.09714286 12.06857143-45.25714286 12.06857143-55.31428571 11.56571428-11.56571429 0.50285714-49.78285714 9.55428571-60.34285714 24.64-40.73142857 60.34285714-30.17142857 94.53714286-20.11428572 127.72571429 2.01142857 7.04 4.52571429 14.58285714 6.03428572 22.12571428 0.50285714 2.01142857 0.50285714 4.52571429 0.50285714 6.03428572 0 4.52571429-0.50285714 10.05714286-1.50857143 14.58285714-2.01142857 14.58285714-15.08571429 24.13714286-29.66857143 23.63428571H330.97142857c1.50857143 17.09714286 5.53142857 51.29142857 11.56571429 67.38285715z m102.08-287.13142857c0.50285714 0 0.50285714 0 0 0z m417.37142857 781.94285714h-193.09714286c-13.57714286 0-25.14285714-12.57142857-25.14285714-28.16s11.06285714-28.16 25.14285714-28.16h168.45714286c-2.01142857-38.21714286-13.57714286-107.61142857-73.92-128.73142857-47.26857143-16.09142857-73.92-21.62285714-91.01714286-24.64-21.62285714-4.52571429-34.19428571-6.53714286-52.8-23.63428572-10.56-10.05714286-12.06857143-27.65714286-3.52-39.72571428 9.05142857-12.06857143 24.64-13.57714286 35.2-4.02285715 8.54857143 7.54285714 10.05714286 8.04571429 29.66857143 12.06857143 18.60571429 4.02285714 46.26285714 9.55428571 97.05142857 26.65142857 98.05714286 33.18857143 114.14857143 154.37714286 109.12 213.21142858-1.00571429 14.08-11.56571429 25.14285714-25.14285714 25.14285714z m-512.41142857 0h-186.05714286c-7.04 0-13.07428571-3.52-17.6-8.04571429-5.02857143-5.53142857-7.04-12.57142857-7.04-20.61714285 2.01142857-111.63428571 20.61714286-141.30285714 63.86285714-188.06857143 30.67428571-32.68571429 67.88571429-39.72571429 107.10857143-47.77142857 17.6-3.52 35.2-7.04 54.30857143-13.07428572 13.07428571-4.02285714 26.65142857 5.02857143 30.67428571 20.11428572 3.52 15.08571429-4.52571429 30.17142857-17.6 34.69714285-21.12 6.53714286-41.23428571 10.56-58.83428571 14.58285715-34.69714286 7.04-62.35428571 12.57142857-81.96571429 33.69142857-29.66857143 31.17714286-43.24571429 45.76-47.26857142 118.67428571h160.41142857c13.57714286 0 24.64 12.57142857 24.64 28.16 0.50285714 15.58857143-11.06285714 27.65714286-24.64 27.65714286z m162.42285714 65.37142857c-5.53142857 0-11.06285714-1.50857143-16.09142857-5.53142857l-83.97714286-68.89142857c-9.55428571-7.54285714-11.56571429-20.61714286-6.03428571-31.17714286l63.86285714-122.69714286-39.72571429-50.78857143c-5.53142857-6.53714286-6.53714286-16.09142857-4.02285714-24.13714285 3.52-8.04571429 10.05714286-14.58285714 18.60571429-16.09142857 1.50857143 0 35.70285714-6.53714286 67.88571428-6.53714286s64.86857143 6.53714286 66.37714286 6.53714286c8.04571429 1.50857143 15.58857143 7.54285714 18.60571429 16.09142857 3.52 8.04571429 1.50857143 17.09714286-4.02285715 24.13714285l-39.22285714 50.28571429 64.86857143 122.69714286c5.53142857 10.56 2.51428571 23.63428571-6.53714286 31.68l-85.48571428 68.89142857c-4.02285714 4.02285714-9.55428571 5.53142857-15.08571429 5.53142857z m-52.8-100.06857143l52.29714286 43.24571429 54.30857143-43.24571429-53.80571429-101.07428571c0.50285714 0-52.8 101.07428571-52.8 101.07428571z m38.21714286-174.49142857l15.58857143 20.11428571 15.58857142-20.11428571c-10.56-0.50285714-21.12-0.50285714-31.17714285 0z" fill="#ffffff" p-id="6123"></path><path d="M351.58857143 329.46285714c-6.53714286 0-12.57142857-2.51428571-17.6-7.54285714-9.05142857-10.05714286-7.54285714-24.13714286 1.50857143-33.18857143 41.23428571-37.21142857 103.58857143-34.19428571 163.42857143-31.68 46.26285714 2.01142857 94.53714286 4.02285714 124.20571428-13.57714286 11.06285714-6.53714286 25.64571429-3.52 32.18285714 8.04571429 6.53714286 11.06285714 3.52 25.64571429-8.04571428 32.18285714-42.24 25.64571429-97.05142857 22.62857143-150.85714286 20.61714286-53.30285714-2.01142857-103.58857143-4.52571429-130.24 20.11428571-3.52 2.51428571-9.05142857 5.02857143-14.58285714 5.02857143z" fill="#ffffff" p-id="6124"></path></svg>