<?xml version="1.0" standalone="no"?><!DOCTYPE svg PUBLIC "-//W3C//DTD SVG 1.1//EN" "http://www.w3.org/Graphics/SVG/1.1/DTD/svg11.dtd"><svg t="1717952722639" class="icon" viewBox="0 0 1456 1024" version="1.1" xmlns="http://www.w3.org/2000/svg" p-id="1714" xmlns:xlink="http://www.w3.org/1999/xlink" width="91" height="64"><path d="M1428.969244 903.338667H1020.666311v-46.887823h20.639289c37.910756 0 68.755911-30.902044 68.755911-68.892444V552.504889c0-37.979022-30.845156-68.881067-68.755911-68.881067h-20.639289V328.965689c0-181.020444-146.989511-328.305778-327.657244-328.305778H267.8784a24.576 24.576 0 0 0-24.553244 24.610133 24.576 24.576 0 0 0 24.553244 24.598756h425.130667c153.6 0 278.562133 125.201067 278.562133 279.096889v645.176889H327.668622c-153.6 0-278.562133-125.212444-278.562133-279.108267V150.243556c0-55.341511 44.942222-100.374756 100.181333-100.374756h32.779378A24.576 24.576 0 0 0 206.620444 25.258667 24.576 24.576 0 0 0 182.0672 0.671289h-32.779378C66.9696 0.671289 0 67.766044 0 150.254933v544.768c0 181.031822 146.989511 328.305778 327.668622 328.305778h668.444445a24.576 24.576 0 0 0 24.553244-24.598755v-46.193778h383.749689v46.193778a24.576 24.576 0 0 0 24.553244 24.598755 24.576 24.576 0 0 0 24.553245-24.598755v-70.792534a24.576 24.576 0 0 0-24.553245-24.598755zM1020.666311 532.809956h20.639289c10.831644 0 19.649422 8.829156 19.649422 19.683555v235.064889c0 10.865778-8.817778 19.706311-19.649422 19.706311h-20.639289V532.809956z" fill="#2c2c2c" p-id="1715"></path><path d="M510.327467 164.716089C319.214933 164.716089 163.7376 320.512 163.7376 512s155.477333 347.272533 346.601244 347.272533c93.2864 0 180.792889-36.590933 246.408534-103.048533a24.632889 24.632889 0 0 0-0.193422-34.781867 24.507733 24.507733 0 0 0-34.7136 0.193423c-56.32 57.0368-131.436089 88.450844-211.512889 88.450844-164.033422 0-297.494756-133.723022-297.494756-298.0864 0-164.363378 133.461333-298.075022 297.494756-298.075022 164.0448 0 297.506133 133.711644 297.506133 298.075022 0 47.741156-10.922667 93.331911-32.449422 135.509333a24.621511 24.621511 0 0 0 10.695111 33.109334 24.519111 24.519111 0 0 0 33.018311-10.706489c25.099378-49.174756 37.831111-102.308978 37.831111-157.912178 0-191.488-155.477333-347.283911-346.601244-347.283911z" fill="#2c2c2c" p-id="1716"></path></svg>