<?xml version="1.0" standalone="no"?><!DOCTYPE svg PUBLIC "-//W3C//DTD SVG 1.1//EN" "http://www.w3.org/Graphics/SVG/1.1/DTD/svg11.dtd"><svg t="1717085182739" class="icon" viewBox="0 0 1287 1024" version="1.1" xmlns="http://www.w3.org/2000/svg" p-id="9301" xmlns:xlink="http://www.w3.org/1999/xlink" width="80.4375" height="64"><path d="M197.944476 188.760882m-188.760882 0a188.760882 188.760882 0 1 0 377.521764 0 188.760882 188.760882 0 1 0-377.521764 0Z" fill="#ffffff" p-id="9302"></path><path d="M110.290872 450.142351h149.5405a126.523021 126.523021 0 0 1 92.713356 40.331772c0.906661 0.818919 1.813321 1.550097 2.690734 2.427511l137.695419 138.485091h91.04627a80.956015 80.956015 0 1 1 0 161.882783h-124.7097a80.926768 80.926768 0 0 1-57.38284-23.865646l-15.179253-15.237748v227.30858a42.17434 42.17434 0 0 1-42.145093 42.174341h-302.415172a42.17434 42.17434 0 0 1-42.145093-42.174341v-421.15846a110.290872 110.290872 0 0 1 110.290872-110.173883z" fill="#ffffff" p-id="9303"></path><path d="M1088.928596 188.760882m-188.760882 0a188.760882 188.760882 0 1 0 377.521764 0 188.760882 188.760882 0 1 0-377.521764 0Z" fill="#ffffff" p-id="9304"></path><path d="M793.942191 631.357477l137.724666-138.455843c0.848166-0.848166 1.754827-1.608591 2.63224-2.398264a126.435279 126.435279 0 0 1 92.742603-40.361019h149.5405a110.290872 110.290872 0 0 1 110.290872 110.290872v421.15846a42.17434 42.17434 0 0 1-42.145093 42.17434h-302.356678a42.17434 42.17434 0 0 1-42.145093-42.17434v-227.30858l-15.150006 15.237747a81.073004 81.073004 0 0 1-57.412087 23.836399h-103.388552a120.322632 120.322632 0 0 0-9.505313-161.882783z" fill="#ffffff" p-id="9305"></path></svg>