<?xml version="1.0" standalone="no"?><!DOCTYPE svg PUBLIC "-//W3C//DTD SVG 1.1//EN" "http://www.w3.org/Graphics/SVG/1.1/DTD/svg11.dtd"><svg t="1716821441569" class="icon" viewBox="0 0 1024 1024" version="1.1" xmlns="http://www.w3.org/2000/svg" p-id="2593" xmlns:xlink="http://www.w3.org/1999/xlink" width="64" height="64"><path d="M330.881297 268.12756c-41.843931 0-62.749897 33.288945-62.749897 99.831836 1.878997 58.956903 21.847964 90.331852 59.897902 94.124846 39.929934-1.878997 60.8359-34.226944 62.749897-96.975841-1.913997-62.750897-21.878964-95.066844-59.897902-96.980841z" p-id="2594" fill="#ffffff"></path><path d="M964.144258 479.392213c35.749941-43.280929 47.272922-104.210829 24.811959-159.897737-24.15996-59.808902-80.764867-96.749841-141.358768-98.761838 6.476989-60.253901-22.186964-121.487801-78.046872-153.725748-52.003915-30.026951-113.995813-27.128955-161.803734 2.210996C576.188895 22.830963 520.848985-5.246991 461.138083 0.819999c-59.776902 6.03099-108.339822 44.612927-129.975786 96.378842-52.725913-19.186969-113.995813-9.608984-158.91774 30.22695-44.944926 39.804935-61.815899 99.542837-49.104919 154.178747-53.979911 15.226975-98.147839 58.811904-111.304817 117.397807-13.155978 58.577904 8.042987 116.928808 50.300917 153.800748-34.858943 43.929928-45.186926 105.104828-21.604964 160.346737 23.546961 55.241909 74.839877 90.100852 130.694785 95.350844-2.624996 56.022908 24.776959 111.714817 76.167875 142.721765 51.390916 31.011949 113.417814 29.378952 161.803735 0.921999 30.64095 46.991923 85.40586 76.167875 145.249761 71.331883 59.839902-4.913992 109.194821-42.53493 131.819784-93.862846 52.347914 20.214967 113.819813 11.858981 159.487738-27.093956 45.733925-38.917936 63.765895-98.284839 52.143915-153.182748 54.249911-14.175977 99.241837-56.909907 113.554814-115.221811 14.307977-58.308904-5.765991-117.026808-47.308923-154.722747zM193.971522 367.959396c3.792994-106.475825 49.429919-161.608735 136.909775-165.432728 85.56986 3.823994 130.233786 58.956903 134.05778 165.432728-3.823994 104.593828-50.401917 158.788739-139.76077 162.577734-81.777866-5.702991-125.499794-59.898902-131.206785-162.577734z m193.955682 453.510256h-77.011874l325.159466-618.942984h77.011874l-325.159466 618.942984z m302.339504 0c-83.686863-5.702991-127.409791-57.042906-131.202785-154.022747 3.792994-106.471825 49.429919-162.577733 136.909775-168.284724 85.56586 3.823994 130.229786 59.897902 134.05778 168.284724-3.827994 98.889838-50.401917 150.198754-139.76477 154.022747z" p-id="2595" fill="#ffffff"></path><path d="M695.973698 567.619069c-39.933934 0-60.8709 32.347947-62.749897 96.975841 1.878997 60.8709 21.843964 93.186847 59.897902 96.975841 38.018938-1.878997 57.983905-35.163942 59.897902-99.827837-1.913997-60.8389-20.940966-92.213849-57.045907-94.123845z" p-id="2596" fill="#ffffff"></path></svg>