<?xml version="1.0" standalone="no"?><!DOCTYPE svg PUBLIC "-//W3C//DTD SVG 1.1//EN" "http://www.w3.org/Graphics/SVG/1.1/DTD/svg11.dtd"><svg t="1716991938343" class="icon" viewBox="0 0 1024 1024" version="1.1" xmlns="http://www.w3.org/2000/svg" p-id="3688" xmlns:xlink="http://www.w3.org/1999/xlink" width="64" height="64"><path d="M862.917 278.827h-8.992c-5.315-17.889-12.74-35.052-22.179-51.28l6.392-6.126c7.312-7.004 11.337-16.346 11.337-26.306s-4.025-19.3-11.343-26.313l-42.584-40.76c-7.312-7.051-17.073-10.933-27.485-10.933-10.41 0-20.173 3.882-27.45 10.898l-6.383 6.118a256.126 256.126 0 0 0-53.518-21.294v-8.615C680.714 83.696 663.294 67 641.88 67h-60.206c-21.413 0-38.835 16.695-38.835 37.216v8.615a256.867 256.867 0 0 0-53.56 21.3l-6.354-6.09c-7.316-7.05-17.077-10.932-27.487-10.93-10.41 0-20.171 3.883-27.447 10.897l-42.576 40.802c-7.312 7.005-11.337 16.347-11.337 26.307 0 9.96 4.025 19.3 11.336 26.304l6.389 6.125c-9.478 16.277-16.907 33.444-22.193 51.281h-9.024c-21.413 0-38.835 16.695-38.835 37.216v57.746c0 20.52 17.422 37.216 38.835 37.216h9.024c5.286 17.835 12.715 35.002 22.193 51.28l-6.39 6.125c-7.312 7.005-11.337 16.347-11.337 26.307 0 9.958 4.025 19.3 11.336 26.304l42.542 40.769c7.313 7.051 17.072 10.933 27.482 10.933h0.002c10.41 0 20.173-3.882 27.45-10.898l6.39-6.125a255.625 255.625 0 0 0 53.56 21.273v8.645c0 20.52 17.42 37.215 38.834 37.215h60.206c21.414 0 38.835-16.695 38.835-37.215v-8.645a254.801 254.801 0 0 0 53.518-21.266l6.347 6.083c7.313 7.051 17.074 10.933 27.484 10.933 10.412 0 20.175-3.884 27.444-10.891l42.633-40.81c7.31-7.007 11.335-16.349 11.335-26.307 0-9.96-4.024-19.3-11.335-26.305l-6.393-6.126a235.043 235.043 0 0 0 22.179-51.28h8.991c21.413 0 38.835-16.695 38.835-37.215v-57.746c0-20.52-17.418-37.216-38.833-37.216zM646.065 585.616c0 2.175-1.916 4.011-4.186 4.011h-60.206c-2.27 0-4.186-1.836-4.186-4.011V459.395c0-6.943-4.508-13.152-11.299-15.566-46.555-16.546-77.832-59.483-77.832-106.842 0-37.533 19.502-72.717 52.159-94.109a72.77 72.77 0 0 1 3.894-2.387c-0.062 2.16-0.221 4.212-0.306 5.283-0.13 1.685-0.234 3.015-0.234 4.334v78.358c0 35.966 29.325 66.003 66.758 68.382 0.764 0.048 1.53 0.048 2.294 0 37.407-2.378 66.71-32.415 66.71-68.382v-78.358c0-1.313-0.102-2.634-0.23-4.31-0.083-1.075-0.243-3.139-0.303-5.307 1.13 0.64 2.418 1.423 3.879 2.38 32.665 21.398 52.167 56.581 52.167 94.114 0 47.355-31.26 90.293-77.787 106.844-6.79 2.416-11.296 8.623-11.296 15.565v126.222h0.004z m221.041-211.827c0 2.137-1.96 4.011-4.19 4.011h-22.441c-8.094 0-15.11 5.37-16.897 12.937-5.487 23.231-14.99 45.2-28.244 65.293-4.328 6.561-3.334 15.121 2.394 20.61l15.913 15.25c1.032 0.989 1.186 2.194 1.186 2.825 0 0.63-0.154 1.836-1.181 2.82l-42.669 40.844c-0.975 0.94-2.124 1.137-2.914 1.137-0.788 0-1.935-0.197-2.947-1.173l-15.913-15.25c-5.736-5.495-14.677-6.441-21.524-2.284-14.788 8.98-30.53 16.106-46.965 21.374v-71.745c53.748-23.97 89.083-76.207 89.083-133.455 0-48.507-25.147-93.937-67.263-121.525-6.451-4.226-26.071-17.08-43.231-7.616-16.85 9.298-15.172 31.091-14.456 40.399 0.062 0.808 0.123 1.487 0.137 1.867v78.358c0 18.173-14.494 33.41-33.208 35.16-18.74-1.753-33.256-16.989-33.256-35.16l-0.002-78.238c0.016-0.5 0.078-1.179 0.14-1.99 0.723-9.303 2.415-31.085-14.42-40.387-17.154-9.482-36.803 3.378-43.267 7.607-42.12 27.59-67.265 73.02-67.265 121.527 0 57.256 35.355 109.495 89.132 133.46v71.738c-16.44-5.267-32.2-12.396-47.031-21.38a17.842 17.842 0 0 0-9.253-2.57c-4.475 0-8.914 1.66-12.256 4.864l-15.945 15.282c-0.976 0.941-2.124 1.139-2.914 1.139s-1.935-0.198-2.947-1.172l-42.577-40.804c-1.034-0.99-1.189-2.196-1.189-2.825 0-0.631 0.155-1.836 1.189-2.828l15.91-15.249c5.728-5.489 6.723-14.049 2.395-20.61-13.323-20.2-22.823-42.158-28.237-65.265-1.774-7.58-8.798-12.967-16.904-12.967h-22.49c-2.23 0-4.186-1.874-4.186-4.01V316.04c0-2.175 1.916-4.011 4.185-4.011h22.491c8.106 0 15.128-5.387 16.904-12.966 5.414-23.107 14.913-45.067 28.237-65.266 4.328-6.56 3.333-15.121-2.394-20.61l-15.913-15.249c-1.032-0.99-1.187-2.195-1.187-2.826 0-0.63 0.155-1.836 1.189-2.827l42.613-40.838c0.976-0.94 2.122-1.138 2.912-1.138s1.937 0.198 2.95 1.172l15.91 15.25c5.731 5.49 14.664 6.441 21.509 2.294 21.05-12.754 43.99-21.877 68.174-27.111 7.9-1.71 13.508-8.436 13.508-16.194v-21.505c0-2.175 1.916-4.011 4.185-4.011h60.207c2.27 0 4.185 1.836 4.185 4.01v21.509c0 7.76 5.608 14.484 13.507 16.194 24.206 5.24 47.119 14.358 68.108 27.103 6.848 4.157 15.788 3.211 21.524-2.284l15.947-15.284c0.976-0.94 2.124-1.138 2.912-1.138 0.79 0 1.937 0.198 2.956 1.18l42.622 40.796c1.033 0.99 1.187 2.195 1.187 2.826 0 0.63-0.154 1.836-1.189 2.827l-15.91 15.25c-5.728 5.488-6.723 14.048-2.395 20.61 13.253 20.093 22.758 42.06 28.244 65.293 1.787 7.565 8.803 12.936 16.897 12.936h22.442c2.27 0 4.186 1.837 4.186 4.011v57.745zM711.952 819.711c-4.714 4.717-4.714 12.366 0 17.084a12.033 12.033 0 0 0 8.535 3.538c3.09 0 6.178-1.18 8.536-3.538l0.034-0.034c4.713-4.717 4.696-12.348-0.018-17.065-4.715-4.717-12.373-4.7-17.087 0.015z" fill="#A926D1" p-id="3689"></path><path d="M784.247 642.402l-136.686 71.256c-11.587-12.181-27.823-19.78-45.782-19.78h-93.653c-5.244 0-6.525-0.423-6.611-0.453-0.76-0.405-3.16-2.695-5.086-4.533l-0.854-0.815c-75.768-72.402-139.772-67.815-212.556-38.656-11.777 4.72-12.004 4.73-23.83 5.242l-21.177 0.015c-6.033-18.475-23.201-31.845-43.398-31.845h-68.861c-25.183 0-45.67 20.82-45.67 46.41V852.7c0 25.562 20.487 46.36 45.67 46.36h68.86c20.196 0 37.363-13.354 43.397-31.807h38.738c3.421 0 3.421 0 7.4 1.138 1.446 0.414 3.206 0.918 5.479 1.538l178.184 48.39c7.855 2.154 15.058 4.274 22.026 6.322 22.83 6.715 42.02 12.36 62.02 12.36 22.606 0 46.243-7.211 77.332-28.243 0.15-0.101 0.3-0.206 0.447-0.313l34.017-24.623c7.743-5.605 9.544-16.518 4.022-24.377-5.521-7.862-16.275-9.688-24.012-4.083l-33.792 24.46c-45.115 30.46-64.272 24.829-110.451 11.246-7.114-2.092-14.47-4.256-22.666-6.504l-178.199-48.392a402.024 402.024 0 0 1-5.067-1.423c-6.5-1.86-8.932-2.446-16.738-2.446h-36.417V689.647h18.606c0.248 0 0.493-0.006 0.74-0.016l0.982-0.042c14.433-0.626 18.47-1.026 35.002-7.652 63.925-25.607 113.268-28.65 176.334 31.616l0.852 0.813c10.778 10.282 16.984 14.47 35.279 14.47h93.653c10.991 0 20.576 6.193 25.572 15.318 0.054 0.102 0.116 0.198 0.17 0.299a29.853 29.853 0 0 1 3.503 14.07c0 16.344-13.118 29.638-29.243 29.638h-151.78c-9.506 0-17.216 7.825-17.216 17.478 0 9.652 7.71 17.477 17.217 17.477h151.779c35.112 0 63.676-28.976 63.676-64.592 0-4.841-0.544-9.553-1.542-14.092l136.061-70.93c12.879-6.712 30.488-5.992 39.23 8.41 7.735 12.693 3.48 29.565-9.889 39.24l-59.685 43.151c-7.746 5.6-9.554 16.513-4.038 24.376 3.36 4.787 8.659 7.34 14.039 7.34 3.455 0 6.943-1.054 9.972-3.242l59.693-43.156c28.349-20.516 36.6-57.53 19.207-86.071-17.103-28.177-53.324-37.268-84.26-21.148zM205.897 852.7c0 6.184-5.166 11.406-11.283 11.406h-68.861c-6.091 0-11.236-5.224-11.236-11.406V669.246c0-6.317 5.041-11.457 11.236-11.457h68.86c6.118 0 11.284 5.245 11.284 11.457v183.453z" fill="#ffffff" p-id="3690"></path></svg>