<?xml version="1.0" standalone="no"?><!DOCTYPE svg PUBLIC "-//W3C//DTD SVG 1.1//EN" "http://www.w3.org/Graphics/SVG/1.1/DTD/svg11.dtd"><svg t="1719858841853" class="icon" viewBox="0 0 1152 1024" version="1.1" xmlns="http://www.w3.org/2000/svg" p-id="19541" xmlns:xlink="http://www.w3.org/1999/xlink" width="72" height="64"><path d="M554.2 96c46 0 85 29.4 99.6 70.4 8.8 25 36.2 38 61.2 29.2s38-36.2 29.2-61.2C716.6 56.2 642 0 554.2 0S391.6 56.2 364 134.4c-8.8 25 4.2 52.4 29.2 61.2s52.4-4.2 61.2-29.2c14.6-41 53.8-70.4 99.8-70.4zM133.4 395c23.8-11.8 33.4-40.6 21.4-64.4s-40.6-33.4-64.4-21.4l-9.4 4.6C31.4 338.6 0 389.4 0 445.2c0 74.8 56 136.6 128.4 145.8C132.8 689.4 182 776.4 256 832v96c0 53 43 96 96 96h96c53 0 96-43 96-96v-32h96v32c0 53 43 96 96 96h96c53 0 96-43 96-96v-74.8c37.4-21.6 70.2-50.8 96-85.2h64c35.4 0 64-28.6 64-64v-192c0-35.4-28.6-64-64-64h-26.6c-16.4-37.6-39.8-71.4-68.4-99.6l22.6-73.6-45.8-14 45.8 14c12.6-41.2-18.2-82.8-61.2-82.8H912c-63 0-120.4 24.4-163.2 64H448c-148.8 0-274 101.6-309.8 239.2-24-4-42.2-25-42.2-50.2 0-19.2 10.8-36.8 28.2-45.6l9.4-4.6zM848 576a48 48 0 1 0 0-96 48 48 0 1 0 0 96z m-43.4-240c26.2-29.4 64.2-47.8 106.4-48l-19 61.6c-5.8 18.8 0.4 39.2 15.8 51.6 34.8 27.8 60.8 65.6 74.2 109 6.2 20.2 24.8 34 45.8 34h28v128h-57c-16.6 0-32 8.6-40.6 22.6-23.4 37.4-57.4 67.4-97.8 85.6-17.4 7.6-28.4 24.6-28.4 43.6v104h-96v-80c0-26.6-21.4-48-48-48h-192c-26.6 0-48 21.4-48 48v80h-96v-121.2c0-16.6-8.6-32-22.6-40.6-63.4-39.6-105.4-110-105.4-190 0-123.8 100.2-224 224-224h320.8c13.6 0 26.8-5.8 35.8-16z" p-id="19542" fill="#00386B"></path></svg>