<?xml version="1.0" standalone="no"?><!DOCTYPE svg PUBLIC "-//W3C//DTD SVG 1.1//EN" "http://www.w3.org/Graphics/SVG/1.1/DTD/svg11.dtd"><svg t="1710607125279" class="icon" viewBox="0 0 1024 1024" version="1.1" xmlns="http://www.w3.org/2000/svg" p-id="5916" xmlns:xlink="http://www.w3.org/1999/xlink" width="64" height="64"><path d="M565.312621 34.811412l112.113223 237.536693c8.19092 17.917638 25.084694 30.715952 44.53813 33.787546l250.846938 37.883007c48.63359 7.167055 68.087026 70.134756 32.763682 105.970033L824.350479 635.308266c-14.334111 14.334111-20.477301 34.811412-16.893773 54.776781l43.002332 261.085589c8.19092 50.68132-42.4904 89.588192-86.004664 65.527363l-224.226447-123.375739c-17.405706-9.726718-37.883007-9.726718-55.288713 0l-224.226447 123.375739c-43.514265 24.060829-94.707518-14.846043-86.004665-65.527363l43.002332-261.085589c3.583528-19.965369-3.071595-40.44267-16.893773-54.776781L18.056749 450.500624c-35.323344-35.835277-15.869908-98.802978 32.763682-105.970033l250.846938-37.883007c19.453436-3.071595 36.347209-15.869908 44.53813-33.787547l112.625156-238.048625c13.310246-29.180154 47.609725-42.4904 76.789879-29.692087 13.310246 6.14319 24.060829 16.381841 29.692087 29.692087z" fill="#FF9E30" p-id="5917"></path></svg>