<?xml version="1.0" standalone="no"?><!DOCTYPE svg PUBLIC "-//W3C//DTD SVG 1.1//EN" "http://www.w3.org/Graphics/SVG/1.1/DTD/svg11.dtd"><svg t="1719858055768" class="icon" viewBox="0 0 1024 1024" version="1.1" xmlns="http://www.w3.org/2000/svg" p-id="14838" xmlns:xlink="http://www.w3.org/1999/xlink" width="64" height="64"><path d="M316.269714 890.441143a215.625143 215.625143 0 0 1-45.728914-133.412572c0-88.298057 53.365029-164.893257 129.609143-198.656l232.565028-182.623085 2.018743-1.141029a155.765029 155.765029 0 0 1 84.289829-93.564343 16.237714 16.237714 0 0 1 1.462857-3.159771l64.746057-113.517714a88.356571 88.356571 0 0 1-1.462857-2.048 17.905371 17.905371 0 0 1-3.189029 0.292571H593.130057a83.821714 83.821714 0 0 1-150.586514-34.728229H403.456c-8.952686 54.184229-55.968914 96.314514-111.586743 96.314515-24.517486 0-47.425829-7.899429-67.9936-22.1184a15.506286 15.506286 0 0 1-7.109486-13.399772c0-3.949714 0-8.689371 4.739658-13.429028a18.6368 18.6368 0 0 1 14.218971-6.319543c3.949714 0 8.718629 1.579886 11.088457 3.949714 14.218971 10.24 29.257143 15.008914 45.845943 15.008914 41.252571 0 74.020571-32.855771 75.103086-72.996571a17.700571 17.700571 0 0 1-0.292572-9.098971C363.812571 67.1744 330.664229 36.278857 291.869257 36.278857c-18.168686 0-34.786743 5.5296-48.215771 16.5888a14.628571 14.628571 0 0 1-11.088457 3.949714 19.221943 19.221943 0 0 1-14.218972-7.109485 23.464229 23.464229 0 0 1-3.978971-11.849143 15.506286 15.506286 0 0 1 7.138743-13.429029C241.2544 7.899429 265.771886 0 292.6592 0a112.786286 112.786286 0 0 1 110.3872 91.574857h41.252571a83.821714 83.821714 0 0 1 136.718629-40.257828h206.672457c1.960229 0 3.8912 0.321829 5.705143 0.936228a88.707657 88.707657 0 0 1 63.8976-27.004343 88.356571 88.356571 0 0 1 88.561371 88.415086c0 13.633829-3.159771 26.565486-8.777142 38.0928l-12.9024 210.417371c7.840914 18.490514 12.200229 38.824229 12.200228 60.152686a155.999086 155.999086 0 0 1-90.141257 140.726857l-142.482286 202.225372a215.771429 215.771429 0 0 1-45.933714 125.162057h207.374629c9.508571 0 18.197943 7.899429 18.197942 18.168686v83.675428c0 9.479314-7.899429 18.139429-18.197942 18.139429H116.3264a18.373486 18.373486 0 0 1-18.197943-18.139429v-83.675428c0-9.479314 7.899429-18.139429 18.197943-18.139429H316.269714z m50.5856 0h239.791543a18.373486 18.373486 0 0 1 0.760686-0.789943c37.946514-34.728229 60.094171-82.885486 60.094171-134.173257a178.9952 178.9952 0 0 0-52.194743-127.093029c-33.9968-34.757486-79.082057-52.896914-127.297828-52.896914-23.698286 0-46.401829 4.593371-67.203657 12.960914a17.2032 17.2032 0 0 1-5.763657 2.428343c-63.546514 28.116114-108.1344 91.779657-108.1344 165.390629 0 51.317029 22.235429 99.562057 59.947885 134.173257z m402.870857-764.138057a86.484114 86.484114 0 0 1 2.750172-38.677943h-167.643429a83.265829 83.265829 0 0 1 3.218286 38.677943h161.674971z m121.709715 187.157943l7.489828-122.441143a88.795429 88.795429 0 0 1-41.632914 10.269257c-16.091429 0-31.158857-4.242286-44.119771-11.702857L768.292571 268.258743a153.570743 153.570743 0 0 1 123.143315 45.231543z m1.6384 67.701028a18.870857 18.870857 0 0 1-4.798172-10.8544 119.105829 119.105829 0 0 0-106.115657-65.594514c-64.833829 0-118.608457 52.896914-118.608457 118.403657 0 65.536 52.955429 118.432914 118.608457 118.432914a118.345143 118.345143 0 0 0 110.884572-160.387657z m-409.980343 158.837029l4.096-0.029257c103.424 0 190.200686 72.791771 211.616914 170.218057l94.090972-133.500343a155.2384 155.2384 0 0 1-10.737372 0.380343c-83.587657 0-152.049371-66.589257-154.887314-149.386972l-144.1792 112.318172zM525.165714 65.506743c-26.097371 0-47.455086 21.328457-47.455085 47.396571 0 26.038857 21.357714 47.338057 47.455085 47.338057 26.097371 0 47.455086-21.2992 47.455086-47.367314 0-26.038857-21.357714-47.367314-47.455086-47.367314z m-36.366628 790.235428a98.801371 98.801371 0 0 1-98.889143-98.684342 98.801371 98.801371 0 0 1 98.889143-98.684343 98.801371 98.801371 0 0 1 98.830628 98.684343c-0.789943 54.447543-45.056 98.655086-98.830628 98.655085z m0-161.060571a62.551771 62.551771 0 0 0-62.493257 62.376229 62.025143 62.025143 0 0 0 62.493257 62.346971 62.025143 62.025143 0 0 0 62.464-62.346971c-0.789943-33.938286-29.257143-62.376229-62.464-62.376229z m293.361371-206.0288a66.7648 66.7648 0 0 1-66.413714-66.325943 66.7648 66.7648 0 0 1 66.413714-66.296686 66.7648 66.7648 0 0 1 66.413714 66.296686 66.7648 66.7648 0 0 1-66.413714 66.325943z m0-95.524571c-16.5888 0-29.257143 13.429029-29.257143 29.198628 0 15.798857 13.458286 29.227886 29.257143 29.227886 16.618057 0 29.257143-13.458286 29.257143-29.227886 0-15.798857-13.458286-29.198629-29.257143-29.198628z m75.132343-331.541943c-28.4672 0-52.194743 23.669029-52.194743 52.077714 0 28.437943 23.727543 52.106971 52.194743 52.106971s52.194743-23.698286 52.194743-52.077714c0-28.437943-23.698286-52.106971-52.194743-52.106971z m-11.0592 911.7696v-48.157257H134.524343v48.157257h711.709257z" fill="#00386B" p-id="14839"></path></svg>