<?xml version="1.0" standalone="no"?><!DOCTYPE svg PUBLIC "-//W3C//DTD SVG 1.1//EN" "http://www.w3.org/Graphics/SVG/1.1/DTD/svg11.dtd"><svg t="1717953524335" class="icon" viewBox="0 0 1024 1024" version="1.1" xmlns="http://www.w3.org/2000/svg" p-id="5340" xmlns:xlink="http://www.w3.org/1999/xlink" width="64" height="64"><path d="M522.7 959.8c-26.1 0-53.6-9.3-67.3-32.3l-0.7-1.1-24.4-56h-70.2c-38.1 0-69.1-31-69.1-69.1 0-7.2 1.1-14.2 3.2-20.8-23.6-11-39.9-35-39.9-62.6 0-7.9 1.4-15.8 4-23.2-17.9-12.7-29.2-33.5-29.2-56.5 0-15.1 5-29.6 13.8-41.4-11.1-12.5-17.6-28.8-17.6-46 0-23.9 12.2-45.1 30.8-57.5l-49.6-113.6c-3 0.1-6.1 0.2-9.1 0.2-42.2 0-81.4-13.7-112.2-39.6l-4.8-4-1.6-6c-18.2-67-19.1-127.1-3-189.2l2.6-10 9.6-3.7c3.8-1.4 7.5-2.9 11.3-4.3 4.3-1.6 8.6-3.3 12.9-4.9l18.7-7.1 7.1 18.7c13 34 25.9 68.1 38.9 102.1 30.8-0.4 54.7-9.5 77.9-29.7-10.8-28.3-21.6-56.7-32.4-85l-13.6-35.8 18.7-7.1c3.9-1.5 7.7-2.9 11.6-4.4l12.6-4.8 9.6-3.7 8.6 5.7c53.4 35.6 92.7 81 123.8 143.1l2.8 5.7-0.9 6.3c-4.5 30.3-17 58.2-37.3 82.8l-0.6 0.7-12.7 12.9 7.7 17.6c7.3-14.6 18.8-27.6 33.8-37.9 21.2-14.5 47.1-22.1 73-21.2l16.3 0.5 2.7 16.1c8.9 52.9 54.5 76.8 107.4 104.4 25.8 13.5 52.5 27.4 75.1 45.6 22.3 18 37.9 38.2 47.2 61.2h48.5v40l-78-0.1-4.1-14.6c-13.2-47.6-58.9-71.5-107.2-96.7-27.4-14.3-55.8-29.1-78.9-49-22.6-19.4-37.6-41.3-45.3-66.7-27 4.2-50.8 21.6-57.6 43l27.7 63.7c10.6 7.9 24.2 16 37.4 23.8 21.8 13 42.4 25.2 55.8 39.4l31.8 33.7H294.5c-16.1 0-29.2 13.1-29.2 29.1 0 11.3 6.7 21.7 17 26.5l35.2 16.3-33.7 19.2c-9.1 5.2-14.8 14.9-14.8 25.3 0 13.4 9 25 22 28.3l31.3 7.9-21 24.5c-4.6 5.4-7.1 11.9-7.1 18.9 0 16.1 13.1 29.1 29.1 29.1h48.8l-32.9 33.9c-5.4 5.6-8.4 12.8-8.4 20.4 0 16.1 13.1 29.1 29.1 29.1H591v31.8l15.4 35.2-1.1 6c-5 27.5-29.3 48.5-63.3 54.6-6.1 1.7-12.6 2.3-19.3 2.3z m-32.4-52c6.6 9.5 25.9 14.3 44.7 10.9 11.7-2.1 24.7-7.8 29.5-17.6l-4.3-9.9h-77.1l7.2 16.6z m-74.4-426.1H428l-16.5-9.9 4.4 9.9z m-128.3-16.2h77.7l-67.7-155.7 30.4-30.9c13.9-17.1 22.9-36.2 27-56.6-24.2-46.6-53.8-82.4-91.9-111.1 11.3 29.7 22.7 59.5 34 89.2l4.6 12.1-9.1 9.2c-37.4 37.4-77.7 52.8-130.6 49.8l-13-0.7-4.6-12.1c-11.3-29.7-22.6-59.5-34-89.2-9.3 46.9-7.6 93.3 5.4 144.1 27.4 20.8 63 29.8 101 25.2l14.8-1.8 56 128.5z" p-id="5341" fill="#2c2c2c"></path><path d="M888.5 876.4h-81c-19.2 0-38.1-10.4-51.9-28.5-12.1-15.8-19-35.5-19-53.8 0-11 9-20 20-20s20 9 20 20c0 19.8 16.4 42.4 30.9 42.4h81c17 0 30.9-13.8 30.9-30.9V528.2c0-17-13.8-30.9-30.9-30.9h-81c-15.3 0-30.9 9.6-30.9 28 0 11-9 20-20 20s-20-9-20-20c0-19.1 7.6-36.5 21.3-49.2 13.1-12.1 30.7-18.7 49.5-18.7h81c39.1 0 70.9 31.8 70.9 70.9v277.3c0.1 39-31.7 70.8-70.8 70.8z" p-id="5342" fill="#2c2c2c"></path><path d="M571.5 879c-10.8 0-19.7-8.6-20-19.4l-0.3-9.5v-0.6c0-18.3 6.6-36.8 18-50.7 12.9-15.8 30.6-24.5 49.8-24.5h136.6c11 0 20 9 20 20s-9 20-20 20H619c-16.3 0-27.6 18.4-27.8 35l0.3 9.2c0.3 11-8.3 20.3-19.4 20.6-0.2-0.1-0.4-0.1-0.6-0.1z" p-id="5343" fill="#2c2c2c"></path></svg>