<?xml version="1.0" standalone="no"?><!DOCTYPE svg PUBLIC "-//W3C//DTD SVG 1.1//EN" "http://www.w3.org/Graphics/SVG/1.1/DTD/svg11.dtd"><svg t="1717843115198" class="icon" viewBox="0 0 1024 1024" version="1.1" xmlns="http://www.w3.org/2000/svg" p-id="15457" xmlns:xlink="http://www.w3.org/1999/xlink" width="64" height="64"><path d="M512 0C229.28 0 120.224 182.528 111.328 356.16v148.864c-15.584 17.824-22.24 40.64-22.24 69.568 0 51.2 33.088 93.248 82.048 104.352C228.992 830.336 324.992 1024 489.728 1024c89.056 0 158.048-57.888 211.488-133.6h-57.76c-48.992 60.096-100.192 89.024-155.84 89.024-106.816 0-198.496-107.136-283.136-329.728l-4.16-13.216-13.216-2.112c-28.928 0-53.568-26.432-53.568-59.808 0-13.088 2.464-24 6.24-32.704l73.056 34.784a22.208 22.208 0 0 0 32-20.16v-159.264c15.36-1.056 55.872-2.656 123.136-18.784 70.688-16.96 152.224-47.328 208.672-101.568 59.744 78.656 137.024 109.216 157.92 116.16v163.424a22.272 22.272 0 0 0 32 20.192l34.784-17.376v73.792c-3.552 0.768-7.36 1.344-11.136 1.344l-13.216 2.112-4.864 13.216c-22.24 57.888-44.544 107.264-66.784 149.568 26.72-4.448 51.744-15.424 69.568-35.456 13.344-28.928 24.384-58.144 35.488-84.864a84.48 84.48 0 0 0 13.184-4.864v16c0 75.04-58.528 133.536-133.568 133.536h-93.184a67.136 67.136 0 0 0-62.656-44.512h-44.512a67.104 67.104 0 0 0-66.784 66.752c0 36.672 30.176 66.784 66.784 66.784h44.512c28.8 0 53.344-18.784 62.656-44.512h93.184a177.728 177.728 0 0 0 178.08-178.08v-22.24a67.072 67.072 0 0 0 66.784-66.784V512a67.04 67.04 0 0 0-66.784-66.752V356.16c-8.896-195.904-117.856-307.2-302.624-311.648L521.056 0H512z m-9.056 44.544l44.544 44.512h9.024c222.624 0 262.72 166.944 267.136 267.136v89.056a21.856 21.856 0 0 0-2.048 0 22.272 22.272 0 0 0-20.192 22.272v41.728l-22.24 11.136v-141.92a22.304 22.304 0 0 0-16.032-21.568s-110.976-34.912-165.568-123.84a22.24 22.24 0 0 0-20.832-10.432 22.176 22.176 0 0 0-15.296 8.352c-44.416 53.28-128.768 86.496-203.136 104.352-74.368 17.856-137.088 20.864-137.088 20.864a22.272 22.272 0 0 0-20.832 22.272v142.592l-46.592-22.24V356.16c13.344-224.832 186.656-309.408 349.152-311.616z m342.976 445.184h22.24c12.32 0 22.24 9.92 22.24 22.24v89.056a22.208 22.208 0 0 1-22.24 22.24h-18.112a19.52 19.52 0 0 0-4.128-0.704v-96.672a22.976 22.976 0 0 0 0-6.944v-29.216zM489.728 823.616h44.512c12.384 0 22.272 9.92 22.272 22.24 0 12.384-9.92 22.272-22.272 22.272h-44.512a22.208 22.208 0 0 1-22.272-22.272 22.176 22.176 0 0 1 22.272-22.24z" p-id="15458" fill="#ffffff"></path></svg>