<?xml version="1.0" standalone="no"?><!DOCTYPE svg PUBLIC "-//W3C//DTD SVG 1.1//EN" "http://www.w3.org/Graphics/SVG/1.1/DTD/svg11.dtd"><svg t="1710607721576" class="icon" viewBox="0 0 1024 1024" version="1.1" xmlns="http://www.w3.org/2000/svg" p-id="8939" xmlns:xlink="http://www.w3.org/1999/xlink" width="64" height="64"><path d="M744.248889 358.058667a19.2 19.2 0 0 0-29.297778-2.844445l-54.869333 54.101334-35.185778-34.702223 54.869333-54.129777a18.631111 18.631111 0 0 0-2.389333-28.558223c-45.283556-31.914667-104.078222-21.617778-144.583111 18.346667-22.186667 21.902222-28.529778 47.786667-27.875556 71.509333 0.483556 17.891556 4.920889 35.043556 9.272889 48.924445l-126.293333 124.615111a61.525333 61.525333 0 0 0 0 87.836444 63.544889 63.544889 0 0 0 89.031111 0l126.407111-124.757333a195.413333 195.413333 0 0 0 51.598222 7.736889c23.608889 0 50.005333-5.859556 70.371556-25.941333 36.124444-35.612444 49.777778-96.455111 18.944-142.136889z m-184.547556-21.248c22.840889-22.528 50.346667-30.151111 74.183111-24.177778l-49.351111 48.696889a18.602667 18.602667 0 0 0 0 26.538666l62.094223 61.269334a19.143111 19.143111 0 0 0 26.936888 0l48.298667-47.672889c4.920889 24.632889-3.868444 52.849778-23.466667 72.192-10.695111 10.552889-25.713778 14.933333-43.491555 14.933333-17.806222 0-36.323556-4.465778-50.915556-9.272889a19.2 19.2 0 0 0-19.456 4.551111l-134.542222 132.721778a25.116444 25.116444 0 0 1-35.185778 0 24.32 24.32 0 0 1 0-34.702222l134.542223-132.750222a18.602667 18.602667 0 0 0 4.608-19.2c-5.233778-15.445333-10.524444-32.369778-11.008-49.152-0.426667-16.042667 3.612444-31.004444 16.753777-43.975111zM114.261333 633.685333c-2.844444 17.294222 7.139556 33.621333 22.954667 39.708445l16.156444 53.390222-39.139555-3.640889A42.808889 42.808889 0 0 0 157.297778 768.568889h39.822222c5.12 0.512 10.24 0.654222 15.36 0.426667l109.937778 1.735111c3.413333-0.142222 73.187556 0 58.538666 0l100.465778 14.449777c12.743111 0 20.053333 8.305778 16.64 14.449778l-16.64 36.494222a26.538667 26.538667 0 0 0 2.702222 26.055112c1.649778 2.304 2.218667 5.290667 0.938667 7.793777a1.706667 1.706667 0 0 1-1.024 0.853334l-13.283555 3.925333c-1.877333 0.568889-3.811556 0.938667-5.774223 1.166222-5.745778-38.257778-39.224889-67.640889-79.616-67.640889-40.561778 0-74.097778 29.582222-79.701333 68.067556H117.475556c0 20.736 17.038222 37.546667 38.058666 37.546667h153.770667A80.497778 80.497778 0 0 0 385.336889 967.111111a80.497778 80.497778 0 0 0 76.088889-53.447111c6.826667-0.028444 13.653333-1.024 20.195555-2.958222l13.312-3.925334c10.524444-3.128889 19.228444-10.353778 24.149334-20.053333l6.428444-12.657778c4.266667-8.448 0.853333-16.270222-2.56-24.035555-3.413333-7.879111-6.855111-15.729778-2.304-24.149334 1.848889-3.413333 4.067556-7.367111 6.684445-11.861333 29.269333-50.346667-19.541333-68.181333-58.567112-72.192l-107.349333-11.178667-82.602667-62.748444a107.662222 107.662222 0 0 0-49.607111-19.854222l-114.915555-14.364445z m109.909334 51.569778c11.576889 1.536 22.584889 5.916444 31.943111 12.8l43.064889 31.573333-88.405334 1.820445a69.888 69.888 0 0 1-9.870222-0.284445l-6.684444-0.597333-15.388445-50.915555 45.340445 5.603555z m203.605333 202.439111c0 23.125333-19.000889 41.870222-42.439111 41.870222s-42.439111-18.773333-42.439111-41.870222c0-23.153778 19.000889-41.898667 42.439111-41.898666s42.439111 18.773333 42.439111 41.898666z" p-id="8940" fill="#FF9E30"></path><path d="M426.666667 56.888889a28.444444 28.444444 0 0 0-28.444445 28.444444v14.222223h-85.333333a56.888889 56.888889 0 0 0-56.888889 56.888888v419.555556a42.666667 42.666667 0 0 0 42.666667-42.666667V156.444444A14.222222 14.222222 0 0 1 312.888889 142.222222h85.333333v14.222222a28.444444 28.444444 0 0 0 28.444445 28.444445h298.666666a28.444444 28.444444 0 0 0 28.444445-28.444445V142.222222h85.333333a14.222222 14.222222 0 0 1 14.222222 14.222222V824.888889a14.222222 14.222222 0 0 1-14.222222 14.222222h-206.222222a42.666667 42.666667 0 0 0-42.666667 42.666667h248.888889a56.888889 56.888889 0 0 0 56.888889-56.888889V156.444444a56.888889 56.888889 0 0 0-56.888889-56.888888h-85.333333V85.333333a28.444444 28.444444 0 0 0-28.444445-28.444444H426.666667z m14.222222 49.777778a7.111111 7.111111 0 0 1 7.111111-7.111111h256a7.111111 7.111111 0 0 1 7.111111 7.111111v28.444444a7.111111 7.111111 0 0 1-7.111111 7.111111h-256a7.111111 7.111111 0 0 1-7.111111-7.111111v-28.444444z" p-id="8941" fill="#FF9E30"></path></svg>