<?xml version="1.0" standalone="no"?><!DOCTYPE svg PUBLIC "-//W3C//DTD SVG 1.1//EN" "http://www.w3.org/Graphics/SVG/1.1/DTD/svg11.dtd"><svg t="1716708218650" class="icon" viewBox="0 0 1024 1024" version="1.1" xmlns="http://www.w3.org/2000/svg" p-id="19658" xmlns:xlink="http://www.w3.org/1999/xlink" width="64" height="64"><path d="M344.2 649V480.4c0-16.8-16.8-33.7-37.7-33.7v-257l12.6-63.2L306.5 0.1h-71.3l-16.8 126.4 12.6 63.2v257c-21 0-37.7 12.7-37.7 33.7V649c-16.8 12.7-29.4 29.5-29.4 54.7v257c0 33.7 33.6 63.2 71.3 63.2h71.3c37.7 0 71.3-29.5 71.3-63.2V703.8c-0.1-25.4-12.6-42.2-33.6-54.8zM793 0.1s-25.1 0-25.1 25.3v134.8c0 16.8-12.6 33.7-29.4 33.7H553.9c-16.8 0-29.4-12.7-29.4-33.7V25.4C524.5 0.1 495.1 0.1 495.1 0.1 453.2 42.3 428 126.5 428 189.7c0 88.5 50.3 130.6 121.6 147.5v589.9c0 50.6 37.7 88.4 83.9 88.4h12.6c46.2 0 83.9-42.2 83.9-88.4V337.2c79.8-12.7 130-54.7 130-147.5 0.1-63.2-29.3-147.4-67-189.6z" p-id="19659" fill="#ffffff"></path></svg>