<?xml version="1.0" standalone="no"?><!DOCTYPE svg PUBLIC "-//W3C//DTD SVG 1.1//EN" "http://www.w3.org/Graphics/SVG/1.1/DTD/svg11.dtd"><svg t="1710777699348" class="icon" viewBox="0 0 1024 1024" version="1.1" xmlns="http://www.w3.org/2000/svg" p-id="17857" xmlns:xlink="http://www.w3.org/1999/xlink" width="64" height="64"><path d="M502.784 525.312c-104.256 0-189.504-85.312-189.504-189.504s85.312-189.504 189.504-189.504 189.504 85.312 189.504 189.504-85.248 189.504-189.504 189.504z m0-331.648c-78.208 0-142.144 63.936-142.144 142.144s63.936 142.144 142.144 142.144 142.144-63.936 142.144-142.144-63.936-142.144-142.144-142.144z" p-id="17858" fill="#515151"></path><path d="M810.752 276.544c-71.04 0-130.304 59.264-130.304 130.304 0 48.128 27.136 90.752 66.688 113.28 22.72-9.152 47.552-13.76 73.088-13.76 21.248 0 41.664 3.456 60.608 9.856 36.032-23.36 60.224-63.936 60.224-109.376 0-71.04-59.2-130.304-130.304-130.304z m0 213.248c-44.992 0-82.88-37.888-82.88-82.944 0-44.992 37.888-82.88 82.88-82.88 45.056 0 82.944 37.888 82.944 82.88 0 45.056-37.888 82.944-82.944 82.944zM552.576 361.856l-11.84 21.312c-7.104 14.208-23.744 23.68-40.32 23.68s-33.152-9.472-40.256-23.68l-11.84-21.312-40.256 23.68 11.84 21.312c16.576 28.416 47.36 47.424 82.88 47.424 35.584 0 66.368-19.008 82.944-47.424l7.104-21.312-40.256-23.68zM194.816 276.544c-71.04 0-130.304 59.264-130.304 130.304 0 46.528 25.408 87.936 62.848 111.04 23.36-10.496 49.408-16.256 76.928-16.256 22.976 0 44.928 3.904 65.152 11.52 33.536-23.744 55.68-62.784 55.68-106.304 0-71.04-59.2-130.304-130.304-130.304z m0 213.248c-44.992 0-82.88-37.888-82.88-82.944 0-44.992 37.888-82.88 82.88-82.88 45.056 0 82.944 37.888 82.944 82.88 0 45.056-37.888 82.944-82.944 82.944zM36.8 809.28l38.016 45.888 276.224-148.416 328.576 176.512 317.248-227.2-46.592-42.24-278.016 199.168-321.216-172.544z" p-id="17859" fill="#515151"></path><path d="M65.472 705.728c-0.64-4.928-0.96-10.496-0.96-16.96 0-78.144 61.632-139.776 139.776-137.408 33.216 0 66.368 11.84 90.048 33.152l11.52 11.584a283.904 283.904 0 0 0-61.312 109.632h49.088c34.304-88.64 120.64-152 220.992-152 100.416 0 186.688 63.36 221.056 152h53.952a286.0288 286.0288 0 0 0-66.944-115.584l7.552-5.632c26.048-21.312 59.2-33.152 92.352-33.152 78.208 0 139.776 61.632 139.776 139.776 0 5.44-0.256 10.24-0.704 14.592h45.312c0.256-3.968 0.448-8 0.448-12.224 0-83.008-52.544-152.448-126.592-177.28-18.944-6.4-39.36-9.856-60.608-9.856-25.536 0-50.368 4.608-73.088 13.76-17.28 6.912-33.344 16.576-47.68 28.864l-12.608 9.408c-47.424-35.648-106.304-56.768-169.856-56.768-66.176 0-127.232 22.912-175.68 61.184l-13.824-13.824a173.7152 173.7152 0 0 0-58.048-35.84c-20.224-7.616-42.176-11.52-65.152-11.52-27.52 0-53.568 5.76-76.928 16.256-65.28 28.992-110.208 94.144-110.208 170.88 0 5.952 0.384 11.52 0.896 16.96h47.424z" p-id="17860" fill="#515151"></path></svg>