<?xml version="1.0" standalone="no"?><!DOCTYPE svg PUBLIC "-//W3C//DTD SVG 1.1//EN" "http://www.w3.org/Graphics/SVG/1.1/DTD/svg11.dtd"><svg t="1717864568303" class="icon" viewBox="0 0 1024 1024" version="1.1" xmlns="http://www.w3.org/2000/svg" p-id="2772" xmlns:xlink="http://www.w3.org/1999/xlink" width="64" height="64"><path d="M0 0h1024v1024H0z" fill="#7D3DAF" p-id="2773"></path><path d="M835.852518 330.077664l-0.202224-0.808898c-16.35772-66.12743-90.102275-137.085781-157.825033-151.848174l-0.763959-0.157285c-109.538302-20.896538-220.604523-20.896538-330.120357 0l-0.786428 0.157285c-67.700288 14.762393-141.444844 85.720743-157.825033 151.848174l-0.179755 0.808898c-20.222456 92.349215-20.222456 186.001654 0 278.350869l0.179755 0.808899c15.681391 63.305274 83.934426 131.003316 149.129377 149.621456v73.816458c0 26.716111 32.558154 39.838238 51.072935 20.559496l74.789383-77.74186c16.220656 0.907764 32.450301 1.413325 48.679944 1.413325 55.139896 0 110.302262-5.2129 165.060179-15.661169l0.763959-0.157286c67.722758-14.762393 141.467313-85.720743 157.825033-151.848173l0.202224-0.808899c20.222456-92.351462 20.222456-186.003901 0-278.353116z m-59.184387 264.95911c-10.920126 43.141239-66.913859 96.775686-111.403262 106.684689-58.24292 11.075165-116.946462 15.809467-175.591584 14.184929a4.159085 4.159085 0 0 0-3.100776 1.256039l-54.607372 56.056648-58.083387 59.611306c-4.246716 4.426471-11.706555 1.415572-11.706555-4.696104v-122.282943c0-2.019999-1.442535-3.73666-3.426582-4.125381l-0.033704-0.006741c-44.489403-9.909003-100.460666-63.54345-111.403262-106.684689-18.20021-83.473804-18.20021-168.093546 0-251.56735 10.942596-43.141239 66.913859-96.775686 111.403262-106.684689 101.718953-19.346149 204.853477-19.346149 306.54996 0 44.511872 9.909003 100.483136 63.54345 111.403262 106.684689 18.220433 83.476051 18.220433 168.095793 0 251.569597z" fill="#FFFFFF" p-id="2774"></path><path d="M608.779056 651.482142c-6.839684-2.076172-13.358056-3.471522-19.411311-5.9836-62.725564-26.024054-120.453934-59.597824-166.1814-111.063974-26.003831-29.266387-46.356609-62.307633-63.561426-97.274506-8.158637-16.582414-15.034272-33.814193-22.042477-50.933626-6.390296-15.611736 3.022134-31.740268 12.933384-43.502996 9.300083-11.039214 21.267283-19.487707 34.22763-25.713976 10.115722-4.86013 20.09438-2.058197 27.482318 6.516125 15.971246 18.537251 30.641514 38.022711 42.521083 59.510193 7.3048 13.216498 5.30053 29.371994-7.938437 38.366493-3.217617 2.186272-6.149873 4.752277-9.147291 7.221663-2.628919 2.163803-5.1028 4.350075-6.904845 7.280084-3.294013 5.361198-3.451299 11.684086-1.330188 17.512647 16.326263 44.866889 43.844531 79.755119 89.003521 98.546274 7.226158 3.006405 14.483772 6.507137 22.808684 5.536459 13.94226-1.629031 18.456361-16.921702 28.226054-24.911819 9.549493-7.808115 21.752622-7.911474 32.039111-1.40209 10.288736 6.511631 20.262901 13.50186 30.176398 20.566238 9.731495 6.934055 19.420298 13.717566 28.396822 21.622299 8.630495 7.601396 11.603196 17.573314 6.743065 27.889013-8.897881 18.892268-21.844746 34.60961-40.521307 44.642195-5.273567 2.828897-11.571739 3.745648-17.519388 5.576904-6.839684-2.078419 5.947649-1.831256 0 0zM512.171891 295.407387c82.046997 2.298619 149.434961 56.748705 163.876041 137.863222 2.460399 13.820925 3.336705 27.951928 4.430965 41.979571 0.460623 5.900463-2.880576 11.506577-9.248404 11.582974-6.576792 0.078643-9.536011-5.424112-9.962929-11.322329-0.844849-11.675098-1.4313-23.401875-3.04011-34.980354-8.493431-61.119002-57.22955-111.684129-118.065437-122.534601-9.154032-1.633525-18.52377-2.06269-27.796889-3.035615-5.862265-0.615661-13.540058-0.970678-14.838789-8.257503-1.089766-6.109429 4.066961-10.974053 9.884287-11.286377 1.581845-0.087631 3.172679-0.015729 4.761265-0.008988 82.046997 2.298619-1.588586-0.006741 0 0z" fill="#FFFFFF" p-id="2775"></path><path d="M636.859059 457.043229c-0.134816 1.024604-0.206718 3.433324-0.806651 5.702733-2.177284 8.23728-14.665774 9.268626-17.541857 0.954949-0.85159-2.46714-0.979666-5.273567-0.984159-7.929449-0.02921-17.37783-3.806316-34.737685-12.56938-49.857342-9.007981-15.539834-22.770485-28.60354-38.912499-36.508273-9.760705-4.77924-20.316827-7.749694-31.014506-9.520283-4.675881-0.772947-9.401195-1.242558-14.099546-1.896417-5.693745-0.790923-8.733854-4.41973-8.464221-10.030338 0.251657-5.257839 4.093924-9.039438 9.82362-8.715878 18.829353 1.069543 37.016082 5.138751 53.755781 14.002927 34.041134 18.027196 53.486149 46.482438 59.161918 84.478185 0.256151 1.721156 0.669588 3.426583 0.79991 5.15448 0.321312 4.266938 0.523537 8.53837 0.85159 14.164706-0.134816 1.024604-0.328053-5.626337 0 0z" fill="#FFFFFF" p-id="2776"></path><path d="M585.826569 455.056935c-6.8644 0.123582-10.538146-3.675993-11.245933-9.969671-0.49208-4.388273-0.8808-8.834966-1.927874-13.104151-2.06269-8.408048-6.531853-16.200434-13.605219-21.352667-3.338952-2.433436-7.122798-4.206271-11.086399-5.349963-5.035391-1.45377-10.26402-1.053815-15.288177-2.285137-5.455569-1.336929-8.473209-5.754412-7.614878-10.87294 0.779688-4.657906 5.311765-8.293454 10.401083-7.924956 31.809923 2.296372 54.544457 18.741723 57.789038 56.189217 0.229188 2.642401 0.498821 5.435347-0.087631 7.963153-1.004382 4.327606-4.208518 6.495902-7.33401 6.707115-6.8644 0.123582 3.125493-0.211212 0 0z" fill="#FFFFFF" p-id="2777"></path></svg>