<?xml version="1.0" standalone="no"?><!DOCTYPE svg PUBLIC "-//W3C//DTD SVG 1.1//EN" "http://www.w3.org/Graphics/SVG/1.1/DTD/svg11.dtd"><svg t="1713954379774" class="icon" viewBox="0 0 1024 1024" version="1.1" xmlns="http://www.w3.org/2000/svg" p-id="8190" xmlns:xlink="http://www.w3.org/1999/xlink" width="64" height="64"><path d="M887.968 99.968c-25.44-23.424-128.256-98.144-357.376-99.2 0 0-270.112-16.224-401.696 104.576C55.552 178.72 29.792 285.792 27.04 418.976 24.256 551.84 20.768 801.024 261.12 868.672h0.224l-0.224 103.072s-1.44 41.76 25.984 50.272c33.248 10.24 52.736-21.504 84.48-55.584a2652 2652 0 0 0 59.616-67.488c164.32 13.728 290.688-17.76 305.024-22.4 33.152-10.848 220.832-34.816 251.424-284.064 31.488-256.896-15.232-419.424-99.744-492.672v0.16z m27.84 474.112c-26.24 208.032-178.528 221.312-206.08 230.24-12.16 3.936-123.52 31.488-263.008 22.4 0 0-104.32 125.472-136.32 158.08-5.152 5.152-11.552 7.072-15.392 6.176-5.76-1.248-7.008-7.68-7.008-17.248l0.64-170.912c-0.64 0 0 0 0 0-203.552-56.992-191.36-268.832-188.8-380.16 1.888-110.752 22.944-201.632 85.088-263.136C296.32 58.368 526.144 73.664 526.144 73.664c193.824 0.672 286.752 59.104 308.192 78.752 71.424 61.088 107.904 207.584 81.248 422.112l0.256-0.48zM330.272 212.608c10.336 0 19.584 4.64 26.848 13.28 0.16 0.096 24.736 29.664 35.424 44.128 10.016 13.664 23.52 35.424 30.336 47.584 12.16 21.76 4.448 44.032-7.328 53.248l-24.16 19.2c-12.16 9.76-10.656 27.872-10.656 27.872s35.84 134.688 168.928 168.672c0 0 18.176 1.664 27.904-10.496l19.232-24.288c9.088-12.16 31.328-19.84 53.088-7.712 12.16 6.4 33.92 19.872 47.616 30.048 14.464 10.24 44.032 35.232 44.192 35.232 14.08 11.552 17.248 29.408 7.68 47.328v0.672c-9.824 17.28-23.072 33.28-39.84 48.672h-0.352c-13.408 11.52-26.848 17.92-40.288 19.168-1.28 0-3.2 0.672-5.792 0-5.76 0-11.52-1.248-17.248-2.592v-0.608c-20.48-5.76-54.4-20.48-110.752-51.872-36.48-20.448-67.168-40.96-93.408-62.08-13.44-10.88-27.52-23.04-41.632-37.12l-3.232-1.184-2.528-2.528c-14.112-14.08-26.24-28.16-37.152-41.824A696.48 696.48 0 0 1 295.744 432c-31.36-56.32-46.08-90.24-51.84-110.752h-0.672c-1.92-5.728-3.2-11.488-2.56-17.248-0.64-2.592 0-4.48 0-6.016 1.28-12.768 8.064-26.208 19.552-40.288h0.224c15.136-16.64 31.488-30.048 48.896-39.808 7.008-3.872 14.048-5.76 20.448-5.76h0.672l-0.128 0.512z m174.72-29.152h4.96l3.232 0.096h0.864l3.808 0.224h21.792l5.76 0.64h3.168l6.4 0.672h1.28l4.448 0.64h0.672l3.168 0.64c1.952 0 3.232 0.672 4.48 0.672h3.872l3.2 1.248 2.56 0.672 2.56 0.64 1.28 0.64h1.92l1.952 0.672h1.248l3.168 0.672 1.92 0.608 1.952 0.672 2.56 0.672 1.28 0.608c1.28 0 2.56 0.672 3.872 0.672l1.888 0.64 1.952 0.672 5.088 1.888 2.592 1.312 5.76 2.56 1.92 0.64 1.92 0.672 3.84 1.92 2.592 0.64 1.248 0.64 3.232 1.312 1.248 0.608 2.592 1.312 1.92 0.608 1.92 1.28 2.528 1.28 1.952 1.248 1.28 0.672 2.592 1.28 1.888 1.28 3.2 1.92 1.92 0.672 3.168 1.888 0.672 0.64 1.92 1.312 3.84 3.168 1.952 1.28 1.888 1.28 1.312 0.608 1.92 1.312 3.168 3.168 2.592 1.92 1.92 1.28 0.672 0.64 1.248 0.672 3.168 2.592 1.952 1.888 1.28 1.28 1.92 1.248 1.92 1.312 1.248 0.64 5.12 5.12 2.56 2.592 5.76 5.76 1.312 1.248c0.672 0.672 1.92 1.92 2.592 3.2l1.248 1.28 7.072 8.288 1.92 2.56c0.608 0.672 0.608 1.312 1.248 1.312l3.84 5.76 1.92 1.92 3.84 5.12 3.232 5.12 1.92 3.84 2.528 4.48 1.92 3.84 0.672 1.248 1.248 2.592 3.232 6.4 3.168 6.368 1.312 3.2c2.528 5.76 4.448 11.52 7.008 17.92 3.168 8.32 5.76 17.248 7.68 26.88 1.92 7.04 3.232 13.44 4.48 20.48l1.248 11.52 1.92 12.8c0.672 5.152 1.312 10.912 1.312 16 0.608 5.152 0.608 10.24 0.608 15.328v10.912a4.096 4.096 0 0 1-0.608 1.92c-0.672 1.28-1.312 1.92-2.592 3.2-0.896 0.64-2.08 1.952-3.424 1.952-1.248 0.608-2.528 0.608-3.84 0.608h-1.92a9.312 9.312 0 0 1-3.84-1.248c-1.248-0.672-2.592-1.28-3.168-2.592-0.672-1.248-1.92-2.592-2.592-3.84s-1.312-2.56-1.312-3.84v-15.328a383.744 383.744 0 0 0-2.528-27.264c-0.672-6.24-1.92-12.128-2.592-17.92 0-3.168-0.672-6.24-1.248-8.928l-1.248-6.4-1.632-6.016-0.672-3.84-1.92-6.4c-1.248-5.12-3.168-10.24-5.088-15.36a47.808 47.808 0 0 0-4.48-10.208l-1.248-3.232-5.76-11.52-1.312-1.92c-2.592-5.76-5.76-11.52-9.6-16.672l-1.92-3.168H704l-2.72-3.872a70.944 70.944 0 0 0-7.68-10.208l-5.344-6.4-0.64-0.672-1.952-2.432-1.504-1.92-3.2-3.168-0.64-1.28-2.976-2.56-1.92-1.952-3.552-3.2-1.696-1.568-1.952-1.92-0.64-0.672c-0.672-0.64-1.92-1.92-3.2-2.56l-3.232-2.656-1.28-0.64-2.592-1.952-3.168-2.56-1.92-1.536-1.28-0.672-2.56-2.272c0-0.672-0.672-0.672-1.312-0.672l-1.248-1.248-0.64-0.672v-0.544l-1.28-0.608-2.592-1.568-1.888-1.312-3.2-1.92-2.56-1.92-1.248-0.672-1.376-0.544h-3.84l-0.8-0.672-2.784-1.504-0.384-0.608-1.28-0.672-1.92-0.896h-0.512l-1.92-0.672-1.056-0.64-1.92-0.64-0.416-0.48-1.28-0.672-2.272-1.248-1.28-0.64-3.84-1.28-3.168-1.248-5.856-0.672-1.888-1.248a3.584 3.584 0 0 0-1.952-0.672l-1.248-0.64c-1.248-0.48-1.92-0.672-3.2-1.28l-1.28-0.672h-1.248l-2.592-1.248-1.248-0.672-1.92-0.64h-3.936c-0.352 0-0.8-0.224-1.28-0.288h-3.84l-1.92-0.672h-0.64l-1.92-0.672h-1.76c-1.056-0.608-1.92-0.608-2.976-0.608l-0.416-0.672-2.56-0.64c-1.28-0.672-2.4-0.672-3.584-0.672l-1.92-0.64-2.144-0.672-1.92-0.608-2.592-0.672h-2.592l-7.648-0.928h-3.84l-4.96-0.64h-3.232l-2.912-0.352h-1.28l-2.304-0.672h-12.16l-0.416-0.64h-2.592a8.416 8.416 0 0 1-3.84-1.28c-1.28-0.672-2.592-1.248-3.456-2.56l-1.28-1.952c-1.248-1.248-1.248-2.56-1.92-3.84-0.608-1.184-0.608-2.528-0.608-3.808s0-2.56 0.64-3.84c0.672-1.248 1.248-2.56 2.592-3.2 0.64-1.28 1.888-1.888 3.168-2.56a8.672 8.672 0 0 1 3.84-1.28h2.592l0.64 2.816z m23.648 67.168l1.568 0.128 2.592 0.256c0.352 0 0.768 0 1.248 0.128 0.928 0 1.92 0.16 3.2 0.256l2.56 0.352 1.024 0.672 1.92 0.64 2.048 0.64 1.92 0.672h1.28l1.792 0.64 2.976 0.64 2.4 0.672 1.12 0.608h3.104l5.088 1.184 1.952 0.64 1.92 0.64 1.92 0.672s0.64 0 0.64 0.64l1.952 0.64 1.888 0.672 1.92 0.672c0.64 0 1.28 0.608 1.952 0.608 0.288 0 0.608 0.672 1.056 0.672l2.72 1.28h1.248l3.84 1.28 2.144 1.248 1.952 1.28 4.608 1.92 2.56 0.64 1.312 1.312c1.92 0.608 3.84 1.888 5.76 2.528l4.096 2.56 2.08 1.248c1.92 1.28 3.488 1.952 5.152 3.232l1.248 0.608 1.76 1.312 0.928 0.64 3.2 1.92 1.568 1.28 2.784 1.824 1.248 0.64 1.28 0.64 1.952 1.28 2.56 1.952c0.64 0.608 0.928 0.608 1.44 1.248 0.416 0.64 0.672 0.64 1.056 1.28l1.408 1.28 1.536 1.248 3.232 3.232 1.248 1.28 0.672 0.672 3.84 3.808 0.672 0.672c0 0.64 0.64 1.28 1.248 1.28l0.672 0.544 1.92 1.952 1.248 1.92 1.28 1.28 1.92 2.56 1.952 1.952 3.84 5.088 0.608 1.248 2.592 3.232 0.672 1.248 0.64 1.312 0.64 1.248 0.672 1.28c0.672 0.64 0.672 1.28 1.248 2.56l1.824 3.232 0.672 0.64 1.248 2.592 1.312 1.888c0.608 0.64 0.608 1.248 1.248 1.92l1.28 1.92 2.528 5.12 0.672 1.952c0.64 1.888 1.92 3.2 2.56 5.12 0 0.64 0.64 1.248 0.64 1.92l1.92 5.088 2.592 8.32c0 0.672 0.64 1.92 0.64 2.592l1.952 5.76 1.888 7.68 1.952 10.24c0.608 3.168 0.608 5.76 1.248 8.992 0.672 5.088 1.28 10.144 1.28 15.328l0.64 8.96v7.04c0 0.672 0 1.248-0.64 1.92l-1.888 1.824c-1.248 0.992-1.92 1.92-3.168 2.592-1.28 0.64-2.592 1.248-3.84 1.696-1.312 0.672-3.2 0.672-4.48 0.672-1.248 0-2.592-0.672-3.84-1.28-0.672 0-1.28-0.672-1.92-0.896a7.232 7.232 0 0 1-3.2-2.784c-1.28-1.28-1.952-2.56-1.952-3.872l-0.608-1.888v-13.344c0-5.664-0.672-10.912-1.312-16.416-0.64-5.76-1.888-12.16-3.168-17.92-1.248-3.84-1.92-7.68-3.2-11.104l-1.28-3.872-1.248-3.2-0.672-1.28-1.92-5.12-1.92-3.84-3.2-6.368-2.944-5.12v-0.8l-1.248-2.016-1.28-1.632-1.92-3.2-1.952-2.592-3.808-5.088c-1.952-2.592-3.84-5.12-6.048-7.584-0.608-0.64-1.248-1.248-1.248-1.92l-1.28-1.248-0.736-0.672-1.28-0.608-1.28-1.152v-6.24l-5.088-4.832-3.2-2.912v-0.608l-1.28-1.312-1.632-1.248-0.64-0.672c0-0.64-0.672-0.64-1.248-0.64l-1.952-0.672-0.64-0.64-2.592-1.92-0.608-0.672-0.672-0.64c-0.512-0.64-0.992-0.64-1.28-0.64l-2.56-1.92-0.672-0.672-2.56-1.248-0.48-0.672-1.92-1.248-1.28-0.672-1.28-1.248-1.248-1.312h-0.672a10.784 10.784 0 0 0-4.48-2.56l-1.888-1.28-1.28-0.608-0.672-0.672-1.92-1.28-1.888-0.64-2.56-1.28-1.952-0.64-0.64-0.672-2.4-0.608v-0.512l-3.872-1.28-3.84-1.92h-2.56c-1.28-0.64-1.92-0.64-3.2-1.28h-1.888l-1.92-0.672h-1.888l-1.952-0.608-1.248-0.672h-2.592l-2.592-0.64-1.248-0.672h-7.04l-2.944-0.64h-14.976l-1.952-0.672a12.544 12.544 0 0 1-3.84-2.56c-0.608-1.28-1.92-2.56-2.56-3.808-0.64-1.312-1.28-2.592-1.28-3.872v-3.84a13.824 13.824 0 0 1 1.28-4.48c0.352-0.64 0.64-1.28 1.28-1.92 0.768-1.28 1.92-2.56 3.2-3.2 0.64-0.64 1.28-0.64 1.888-1.248 1.312-0.672 2.592-0.672 3.872-0.672h2.56l-0.608 2.336z m19.36 69.504c0.64 0 1.28 0 1.888 0.16 0.672 0 1.312 0 1.952 0.096l2.208 0.224c4.448 0.384 9.088 1.024 13.568 1.952l4.448 0.992 1.12 0.352 4.864 1.248 2.528 0.864 1.952 0.672c1.92 0.608 3.872 1.92 5.76 2.56l0.672 0.64 2.56 1.28 3.84 1.952 1.248 0.608c0.672 0.672 1.312 0.672 1.952 1.28 0.64 0.672 1.92 1.28 2.56 1.92 2.592 1.28 4.48 3.2 6.4 4.48l4.48 3.84 3.84 3.872 2.592 3.168 1.248 1.248 1.28 1.312 1.888 2.56 3.872 5.76 3.2 5.76 2.56 5.12 1.952 4.48c1.888 4.448 2.56 8.32 3.84 12.768 1.248 3.872 1.92 8.352 2.56 12.16l0.64 6.4 0.672 5.792v2.528c0 1.92-0.672 3.2-1.28 4.48a10.112 10.112 0 0 1-3.2 3.84 11.264 11.264 0 0 1-4.48 2.592c-1.248 0.608-2.56 0.608-3.84 0.608-1.248 0-2.56 0-3.84-0.608l-4.448-1.952c-1.28-1.28-2.56-1.92-3.872-3.872a34.624 34.624 0 0 1-1.92-4.448v-7.072l-0.64-4.48-0.64-5.088-0.672-4.48-0.672-2.56c0-0.64-0.608-1.92-0.608-2.56-1.28-5.152-3.84-10.24-6.4-15.36l-2.592-2.56-2.016-2.56-1.92-1.92-0.64-1.28-3.2-2.56-2.592-2.592-2.528-1.92c-0.672-0.64-1.28-0.64-2.592-1.248l-3.84-2.592-2.592-1.28-1.248-0.64H579.2l-3.232-1.312-3.84-1.28-3.84-0.64h-3.2l-1.888-0.64-1.504-0.288h-1.92l-2.56-0.672h-10.88l-0.64-3.2h-1.664a9.184 9.184 0 0 1-3.424-1.248 12.576 12.576 0 0 1-3.84-3.424 23.872 23.872 0 0 1-1.92-3.84 14.24 14.24 0 0 1-0.512-3.84c0-1.568 0-3.2 0.64-4.832a11.168 11.168 0 0 1 2.56-4.256l2.592-1.92a8.672 8.672 0 0 1 3.84-1.28l2.656-3.2h1.376z" fill="#7C529E" p-id="8191"></path></svg>