<?xml version="1.0" standalone="no"?><!DOCTYPE svg PUBLIC "-//W3C//DTD SVG 1.1//EN" "http://www.w3.org/Graphics/SVG/1.1/DTD/svg11.dtd"><svg t="1717014865519" class="icon" viewBox="0 0 3136 1024" version="1.1" xmlns="http://www.w3.org/2000/svg" p-id="2626" xmlns:xlink="http://www.w3.org/1999/xlink" width="196" height="64"><path d="M1396.48 388.48c-59.52 0-121.6 43.52-121.6 43.52v-28.16c0-6.4-2.56-8.32-8.32-8.32H1190.4c-6.4 0-9.6 3.84-9.6 8.32v594.56c0 6.4 2.56 9.6 8.32 9.6h77.44c5.12 0 8.32-3.84 8.32-9.6V489.6s35.84-23.04 79.36-23.04c41.6 0 74.24 20.48 74.24 62.72v469.12c0 6.4 3.84 9.6 9.6 9.6h76.16c6.4 0 8.32-5.12 8.32-9.6V503.04c0-74.88-45.44-114.56-126.08-114.56z m590.72-298.24h-76.16c-6.4 0-9.6 3.84-9.6 8.32v300.16c-28.8-10.88-55.68-17.28-76.8-17.28-123.52 0-208 117.76-208 344.32 0 193.92 82.56 298.24 189.44 298.24 45.44 0 82.56-26.24 110.08-50.56l16.64 28.16c2.56 5.12 5.12 6.4 10.88 6.4h43.52c5.12 0 8.32-3.84 8.32-9.6V98.56c0-5.76-2.56-8.32-8.32-8.32z m-270.72 615.68c0-124.8 36.48-248.32 111.36-248.32 25.6 0 49.28 8.32 73.6 27.52v439.68c-18.56 10.24-42.24 19.2-67.84 19.2-81.28 0-117.12-96-117.12-238.08z m561.28-323.2c-126.08 0-188.8 165.12-188.8 344.96 0 188.16 88.96 293.76 203.52 293.76 50.56 0 100.48-19.84 133.12-37.76 5.12-2.56 5.76-7.04 4.48-11.52l-9.6-39.68c-1.28-5.12-3.84-7.04-9.6-7.04-2.56 0-44.16 12.16-84.48 12.16-93.44 0-136.32-83.2-136.32-193.92v-26.88s46.72 6.4 74.24 6.4h176.64v-51.2c0-188.16-65.92-289.28-163.2-289.28z m-6.4 263.68c-28.16 0-78.72 7.04-78.72 7.04s0.64-20.48 3.2-39.68c10.88-103.04 35.84-155.52 78.08-155.52 37.12 0 62.08 53.76 68.48 147.2 1.28 19.2 1.28 41.6 1.28 41.6l-72.32-0.64zM1036.8 460.16c-28.16-55.04-78.08-79.36-135.04-79.36-36.48 0-94.08 14.08-132.48 31.36-7.68 3.2-12.16 6.4-12.16 12.16 0 3.2 1.92 7.68 3.84 10.88l25.6 55.04c2.56 6.4 7.04 7.68 10.24 7.68 3.84 0 7.04-1.92 10.24-3.84 37.12-23.68 64.64-37.12 86.4-37.12 28.8 0 48 19.2 60.16 47.36 10.88 26.88 15.36 63.36 15.36 106.24v12.16c-23.68-14.72-64.64-23.04-85.12-23.04-109.44 0-168.96 104.32-168.96 215.68 0 120.32 69.12 208 152.32 208 46.08 0 88.32-26.88 115.84-61.44 0 0 14.72 35.84 16.64 39.68 1.92 4.48 3.84 5.76 9.6 5.76h44.16c5.12 0 8.32-3.84 8.32-9.6V652.8c1.92-83.84-2.56-148.48-24.96-192.64z m-67.2 451.84c-21.76 21.12-48 32-71.04 32s-41.6-10.88-55.68-30.72c-17.92-24.32-26.24-62.08-26.24-103.68 0-65.92 24.32-133.12 75.52-133.12 25.6 0 53.76 8.32 77.44 27.52v208zM2841.6 394.88h-67.84c-7.68 0-11.52 3.84-13.44 8.96-14.72 39.04-29.44 78.72-44.8 117.76-8.32 22.4-30.72 86.4-30.72 86.4h-2.56s-16.64-46.08-25.6-69.76c-7.04-18.56-44.8-117.76-49.92-130.56-2.56-6.4-5.76-12.8-15.36-12.8h-74.24c-8.32 0-12.8 8.96-10.24 14.72l120.96 273.92s-126.72 300.8-130.56 307.84c-3.84 7.04 0.64 16.64 10.24 16.64h64.64c10.88 0 15.36-5.76 18.56-15.36 9.6-26.24 23.04-62.72 42.88-118.4 12.8-37.12 33.92-102.4 33.92-102.4h1.92s22.4 66.56 30.72 88.32c21.12 55.04 48 126.72 51.2 134.4 3.2 7.68 7.04 13.44 14.72 13.44h73.6c7.04 0 10.88-8.32 7.04-15.36-8.32-17.28-78.08-186.88-126.72-298.88 0 0 126.08-277.76 128-284.8 4.48-6.4 3.84-14.08-6.4-14.08z" fill="#262525" p-id="2627"></path><path d="M792.32 0.64h-85.12c-7.68 0-12.16 3.84-13.44 8.96-1.28 5.76-128 392.32-136.96 424.32-6.4 23.04-27.52 103.68-33.28 122.88l-44.16-120.32c-10.24-33.28-113.28-320-116.48-331.52-1.92-6.4-4.48-14.08-15.36-14.08h-83.2c-8.32 0-12.8 8.96-10.24 14.72 1.92 4.48 152.32 404.48 213.12 557.44v336c0 6.4 2.56 9.6 8.32 9.6h78.72c5.12 0 8.32-3.84 8.32-9.6V665.6C614.4 523.52 799.36 20.48 801.28 14.72c2.56-7.04 1.92-14.08-8.96-14.08z" fill="#E7211A" p-id="2628"></path></svg>