<?xml version="1.0" standalone="no"?><!DOCTYPE svg PUBLIC "-//W3C//DTD SVG 1.1//EN" "http://www.w3.org/Graphics/SVG/1.1/DTD/svg11.dtd"><svg t="1716992577525" class="icon" viewBox="0 0 1024 1024" version="1.1" xmlns="http://www.w3.org/2000/svg" p-id="5408" xmlns:xlink="http://www.w3.org/1999/xlink" width="64" height="64"><path d="M46.08 290.133333h931.84v58.026667H46.08zM336.213333 232.106667c-15.36 0-29.013333-13.653333-29.013333-29.013334V58.026667c0-15.36 13.653333-29.013333 29.013333-29.013334s29.013333 13.653333 29.013334 29.013334v145.066666c0 17.066667-11.946667 29.013333-29.013334 29.013334zM686.08 225.28c-11.946667 0-22.186667-10.24-22.186667-22.186667V58.026667c0-11.946667 10.24-22.186667 22.186667-22.186667 11.946667 0 22.186667 10.24 22.186667 22.186667v145.066666c0 11.946667-10.24 22.186667-22.186667 22.186667zM336.213333 552.96h-145.066666c-15.36 0-29.013333-13.653333-29.013334-29.013333 0-15.36 13.653333-29.013333 29.013334-29.013334h145.066666c15.36 0 29.013333 13.653333 29.013334 29.013334 0 15.36-11.946667 29.013333-29.013334 29.013333zM423.253333 727.04H191.146667c-15.36 0-29.013333-13.653333-29.013334-29.013333 0-15.36 13.653333-29.013333 29.013334-29.013334h233.813333c15.36 0 29.013333 13.653333 29.013333 29.013334-1.706667 17.066667-13.653333 29.013333-30.72 29.013333z" p-id="5409" fill="#ffffff"></path><path d="M599.04 1018.88H162.133333c-80.213333 0-145.066667-64.853333-145.066666-145.066667v-699.733333c0-80.213333 64.853333-145.066667 145.066666-145.066667h699.733334c80.213333 0 145.066667 64.853333 145.066666 145.066667V426.666667c0 15.36-13.653333 29.013333-29.013333 29.013333-15.36 0-29.013333-13.653333-29.013333-29.013333V174.08c0-47.786667-39.253333-87.04-87.04-87.04h-699.733334c-47.786667 0-87.04 39.253333-87.04 87.04v699.733333c0 47.786667 39.253333 87.04 87.04 87.04h436.906667c15.36 0 29.013333 13.653333 29.013333 29.013334s-13.653333 29.013333-29.013333 29.013333z" p-id="5410" fill="#ffffff"></path><path d="M901.12 923.306667c-5.12 0-11.946667-1.706667-15.36-6.826667l-206.506667-204.8c-58.026667 22.186667-124.586667 8.533333-168.96-35.84-51.2-51.2-61.44-131.413333-22.186666-194.56 3.413333-5.12 10.24-10.24 15.36-10.24 6.826667 0 13.653333 1.706667 18.773333 6.826667l68.266667 68.266666c3.413333 1.706667 5.12 1.706667 5.12 0l8.533333-10.24s0-1.706667-1.706667-3.413333l-68.266666-68.266667c-5.12-5.12-6.826667-11.946667-6.826667-18.773333 0-6.826667 5.12-11.946667 10.24-15.36C602.453333 392.533333 682.666667 401.066667 733.866667 452.266667c44.373333 44.373333 58.026667 110.933333 35.84 168.96l206.506666 204.8c3.413333 3.413333 6.826667 10.24 6.826667 15.36 0 5.12-1.706667 11.946667-6.826667 15.36l-59.733333 59.733333c-5.12 5.12-10.24 6.826667-15.36 6.826667zM684.373333 663.893333c5.12 0 11.946667 1.706667 15.36 6.826667L901.12 870.4l29.013333-29.013333-201.386666-199.68c-6.826667-6.826667-8.533333-17.066667-3.413334-25.6 22.186667-44.373333 13.653333-97.28-20.48-133.12-30.72-30.72-75.093333-40.96-114.346666-29.013334l46.08 46.08c8.533333 8.533333 13.653333 20.48 13.653333 34.133334 0 11.946667-5.12 23.893333-13.653333 34.133333l-8.533334 8.533333c-8.533333 8.533333-20.48 13.653333-34.133333 13.653334-11.946667 0-23.893333-5.12-34.133333-13.653334l-46.08-46.08c-11.946667 39.253333-1.706667 83.626667 29.013333 114.346667 35.84 35.84 88.746667 44.373333 133.12 20.48 1.706667 0 5.12-1.706667 8.533333-1.706667z" p-id="5411" fill="#A926D1"></path></svg>