<?xml version="1.0" standalone="no"?><!DOCTYPE svg PUBLIC "-//W3C//DTD SVG 1.1//EN" "http://www.w3.org/Graphics/SVG/1.1/DTD/svg11.dtd"><svg t="1716993225813" class="icon" viewBox="0 0 1024 1024" version="1.1" xmlns="http://www.w3.org/2000/svg" p-id="2791" xmlns:xlink="http://www.w3.org/1999/xlink" width="64" height="64"><path d="M0 0h1024v1024H0V0z" fill="#00000000" p-id="2792"></path><path d="M860.16 583.68H622.87872l-72.25344 72.25344A71.1168 71.1168 0 0 1 563.2 696.32c0 39.424-32.256 71.68-71.68 71.68s-71.68-32.256-71.68-71.68 32.256-71.68 71.68-71.68a70.9632 70.9632 0 0 1 27.09504 5.38624l78.7456-78.75584c0.4608-0.45056 0.98304-0.78848 1.46432-1.18784 3.75808-4.46464 9.3184-7.36256 15.57504-7.36256h245.76c11.264 0 20.48 9.216 20.48 20.48s-9.216 20.48-20.48 20.48z m-368.64 81.92c-16.9472 0-30.72 13.78304-30.72 30.72s13.7728 30.72 30.72 30.72c16.93696 0 30.72-13.78304 30.72-30.72s-13.78304-30.72-30.72-30.72z m51.2-245.76a70.93248 70.93248 0 0 1-27.09504-5.38624l-78.75584 78.75584c-0.45056 0.45056-0.9728 0.78848-1.45408 1.18784A20.3776 20.3776 0 0 1 419.84 501.76H174.08c-11.264 0-20.48-9.216-20.48-20.48s9.216-20.48 20.48-20.48h237.28128l72.2432-72.25344A71.18848 71.18848 0 0 1 471.04 348.16c0-39.424 32.256-71.68 71.68-71.68s71.68 32.256 71.68 71.68-32.256 71.68-71.68 71.68z m0-102.4c-16.9472 0-30.72 13.78304-30.72 30.72s13.7728 30.72 30.72 30.72c16.93696 0 30.72-13.78304 30.72-30.72s-13.78304-30.72-30.72-30.72z" fill="#A926D1" p-id="2793"></path><path d="M1003.52 561.48992c11.264 0 20.48 9.216 20.48 20.48s-9.216 20.48-20.48 20.48h-97.28V680.96H1003.52c11.264 0 20.48 9.216 20.48 20.48s-9.216 20.48-20.48 20.48h-97.28V870.4c0 22.528-18.432 40.96-40.96 40.96h-143.36v92.16c0 11.264-9.216 20.48-20.48 20.48s-20.48-9.216-20.48-20.48v-92.16h-78.51008v92.16c0 11.264-9.216 20.48-20.48 20.48s-20.48-9.216-20.48-20.48v-92.16h-78.49984v92.16c0 11.264-9.22624 20.48-20.48 20.48-11.27424 0-20.48-9.216-20.48-20.48v-92.16H363.52v92.16c0 11.264-9.216 20.48-20.48 20.48s-20.48-9.216-20.48-20.48v-92.16h-153.6c-22.528 0-40.96-18.432-40.96-40.96V721.92H30.72c-11.264 0-20.48-9.216-20.48-20.48s9.216-20.48 20.48-20.48h97.28v-78.51008H30.72c-11.264 0-20.48-9.216-20.48-20.48s9.216-20.48 20.48-20.48h97.28v-78.49984H30.72c-11.264 0-20.48-9.216-20.48-20.48s9.216-20.48 20.48-20.48h97.28V368.64h-92.16c-11.264 0-20.48-9.216-20.48-20.48s9.216-20.48 20.48-20.48h92.16V174.08c0-22.528 18.432-40.96 40.96-40.96h153.6V40.96c0-11.264 9.216-20.48 20.48-20.48s20.48 9.216 20.48 20.48v92.16h78.51008V40.96c0-11.264 9.20576-20.48 20.48-20.48 11.25376 0 20.48 9.216 20.48 20.48v92.16h78.49984V40.96c0-11.264 9.216-20.48 20.48-20.48s20.48 9.216 20.48 20.48v92.16H680.96V40.96c0-11.264 9.216-20.48 20.48-20.48s20.48 9.216 20.48 20.48v92.16h143.36c22.528 0 40.96 18.432 40.96 40.96v148.48H1003.52c11.264 0 20.48 9.216 20.48 20.48s-9.216 20.48-20.48 20.48h-97.28v78.51008H1003.52c11.264 0 20.48 9.216 20.48 20.48s-9.216 20.48-20.48 20.48h-97.28v78.49984H1003.52zM865.28 174.08h-696.32v696.32h696.32V174.08z" fill="#ffffff" p-id="2794"></path></svg>